G04 #@! TF.GenerationSoftware,KiCad,Pcbnew,(2017-05-31 revision c0bb8a30c)-makepkg*
G04 #@! TF.CreationDate,2017-07-13T16:12:16-05:00*
G04 #@! TF.ProjectId,45 Neo,3435204E656F2E6B696361645F706362,rev?*
G04 #@! TF.FileFunction,Copper,L1,Top,Signal*
G04 #@! TF.FilePolarity,Positive*
%FSLAX46Y46*%
G04 Gerber Fmt 4.6, Leading zero omitted, Abs format (unit mm)*
G04 Created by KiCad (PCBNEW (2017-05-31 revision c0bb8a30c)-makepkg) date 07/13/17 16:12:16*
%MOMM*%
%LPD*%
G01*
G04 APERTURE LIST*
%ADD10C,0.100000*%
%ADD11C,0.600000*%
%ADD12C,2.000000*%
%ADD13C,1.000000*%
%ADD14C,0.750000*%
%ADD15C,0.400000*%
%ADD16C,0.254000*%
G04 APERTURE END LIST*
D10*
D11*
X4950000Y4800000D03*
X1850000Y5200000D03*
X6100000Y1100000D03*
D10*
G36*
X8916140Y6077776D02*
X9013213Y6063376D01*
X9108408Y6039531D01*
X9200806Y6006471D01*
X9289520Y5964512D01*
X9373693Y5914061D01*
X9452516Y5855601D01*
X9525230Y5789698D01*
X9525232Y5789696D01*
X9591135Y5716982D01*
X9649595Y5638159D01*
X9700046Y5553986D01*
X9742005Y5465272D01*
X9775065Y5372874D01*
X9798910Y5277679D01*
X9813310Y5180606D01*
X9818125Y5082589D01*
X9813310Y4984572D01*
X9798910Y4887499D01*
X9775065Y4792304D01*
X9742005Y4699906D01*
X9700046Y4611192D01*
X9649595Y4527019D01*
X9591135Y4448196D01*
X9525232Y4375482D01*
X7403912Y2254162D01*
X7331198Y2188259D01*
X7252375Y2129799D01*
X7168202Y2079348D01*
X7079488Y2037389D01*
X6987090Y2004329D01*
X6891895Y1980484D01*
X6794822Y1966084D01*
X6696805Y1961269D01*
X6598788Y1966084D01*
X6501715Y1980484D01*
X6406520Y2004329D01*
X6314122Y2037389D01*
X6225408Y2079348D01*
X6141235Y2129799D01*
X6062412Y2188259D01*
X5989698Y2254162D01*
X5989696Y2254164D01*
X5923793Y2326878D01*
X5865333Y2405701D01*
X5814882Y2489874D01*
X5772923Y2578588D01*
X5739863Y2670986D01*
X5716018Y2766181D01*
X5701618Y2863254D01*
X5696803Y2961271D01*
X5701618Y3059288D01*
X5716018Y3156361D01*
X5739863Y3251556D01*
X5772923Y3343954D01*
X5814882Y3432668D01*
X5865333Y3516841D01*
X5923793Y3595664D01*
X5989696Y3668378D01*
X8111016Y5789698D01*
X8183730Y5855601D01*
X8262553Y5914061D01*
X8346726Y5964512D01*
X8435440Y6006471D01*
X8527838Y6039531D01*
X8623033Y6063376D01*
X8720106Y6077776D01*
X8818123Y6082591D01*
X8916140Y6077776D01*
X8916140Y6077776D01*
G37*
D12*
X7757464Y4021930D03*
D10*
G36*
X5380606Y9613310D02*
X5477679Y9598910D01*
X5572874Y9575065D01*
X5665272Y9542005D01*
X5753986Y9500046D01*
X5838159Y9449595D01*
X5916982Y9391135D01*
X5989696Y9325232D01*
X5989698Y9325230D01*
X6055601Y9252516D01*
X6114061Y9173693D01*
X6164512Y9089520D01*
X6206471Y9000806D01*
X6239531Y8908408D01*
X6263376Y8813213D01*
X6277776Y8716140D01*
X6282591Y8618123D01*
X6277776Y8520106D01*
X6263376Y8423033D01*
X6239531Y8327838D01*
X6206471Y8235440D01*
X6164512Y8146726D01*
X6114061Y8062553D01*
X6055601Y7983730D01*
X5989698Y7911016D01*
X3868378Y5789696D01*
X3795664Y5723793D01*
X3716841Y5665333D01*
X3632668Y5614882D01*
X3543954Y5572923D01*
X3451556Y5539863D01*
X3356361Y5516018D01*
X3259288Y5501618D01*
X3161271Y5496803D01*
X3063254Y5501618D01*
X2966181Y5516018D01*
X2870986Y5539863D01*
X2778588Y5572923D01*
X2689874Y5614882D01*
X2605701Y5665333D01*
X2526878Y5723793D01*
X2454164Y5789696D01*
X2454162Y5789698D01*
X2388259Y5862412D01*
X2329799Y5941235D01*
X2279348Y6025408D01*
X2237389Y6114122D01*
X2204329Y6206520D01*
X2180484Y6301715D01*
X2166084Y6398788D01*
X2161269Y6496805D01*
X2166084Y6594822D01*
X2180484Y6691895D01*
X2204329Y6787090D01*
X2237389Y6879488D01*
X2279348Y6968202D01*
X2329799Y7052375D01*
X2388259Y7131198D01*
X2454162Y7203912D01*
X4575482Y9325232D01*
X4648196Y9391135D01*
X4727019Y9449595D01*
X4811192Y9500046D01*
X4899906Y9542005D01*
X4992304Y9575065D01*
X5087499Y9598910D01*
X5184572Y9613310D01*
X5282589Y9618125D01*
X5380606Y9613310D01*
X5380606Y9613310D01*
G37*
D12*
X4221930Y7557464D03*
D10*
G36*
X7148373Y7845543D02*
X7245446Y7831143D01*
X7340641Y7807298D01*
X7433039Y7774238D01*
X7521753Y7732279D01*
X7605926Y7681828D01*
X7684749Y7623368D01*
X7757463Y7557465D01*
X7757465Y7557463D01*
X7823368Y7484749D01*
X7881828Y7405926D01*
X7932279Y7321753D01*
X7974238Y7233039D01*
X8007298Y7140641D01*
X8031143Y7045446D01*
X8045543Y6948373D01*
X8050358Y6850356D01*
X8045543Y6752339D01*
X8031143Y6655266D01*
X8007298Y6560071D01*
X7974238Y6467673D01*
X7932279Y6378959D01*
X7881828Y6294786D01*
X7823368Y6215963D01*
X7757465Y6143249D01*
X5636145Y4021929D01*
X5563431Y3956026D01*
X5484608Y3897566D01*
X5400435Y3847115D01*
X5311721Y3805156D01*
X5219323Y3772096D01*
X5124128Y3748251D01*
X5027055Y3733851D01*
X4929038Y3729036D01*
X4831021Y3733851D01*
X4733948Y3748251D01*
X4638753Y3772096D01*
X4546355Y3805156D01*
X4457641Y3847115D01*
X4373468Y3897566D01*
X4294645Y3956026D01*
X4221931Y4021929D01*
X4221929Y4021931D01*
X4156026Y4094645D01*
X4097566Y4173468D01*
X4047115Y4257641D01*
X4005156Y4346355D01*
X3972096Y4438753D01*
X3948251Y4533948D01*
X3933851Y4631021D01*
X3929036Y4729038D01*
X3933851Y4827055D01*
X3948251Y4924128D01*
X3972096Y5019323D01*
X4005156Y5111721D01*
X4047115Y5200435D01*
X4097566Y5284608D01*
X4156026Y5363431D01*
X4221929Y5436145D01*
X6343249Y7557465D01*
X6415963Y7623368D01*
X6494786Y7681828D01*
X6578959Y7732279D01*
X6667673Y7774238D01*
X6760071Y7807298D01*
X6855266Y7831143D01*
X6952339Y7845543D01*
X7050356Y7850358D01*
X7148373Y7845543D01*
X7148373Y7845543D01*
G37*
D12*
X5989697Y5789697D03*
D13*
X-2813782Y-751041D03*
D10*
G36*
X-2637005Y132842D02*
X-1929899Y-574264D01*
X-2990559Y-1634924D01*
X-3697665Y-927818D01*
X-2637005Y132842D01*
X-2637005Y132842D01*
G37*
D13*
X-551041Y-3013782D03*
D10*
G36*
X-374264Y-2129899D02*
X332842Y-2837005D01*
X-727818Y-3897665D01*
X-1434924Y-3190559D01*
X-374264Y-2129899D01*
X-374264Y-2129899D01*
G37*
D13*
X2913782Y451041D03*
D10*
G36*
X3090559Y1334924D02*
X3797665Y627818D01*
X2737005Y-432842D01*
X2029899Y274264D01*
X3090559Y1334924D01*
X3090559Y1334924D01*
G37*
D13*
X651041Y2713782D03*
D10*
G36*
X827818Y3597665D02*
X1534924Y2890559D01*
X474264Y1829899D01*
X-232842Y2537005D01*
X827818Y3597665D01*
X827818Y3597665D01*
G37*
G36*
X148018Y-6054815D02*
X245091Y-6069215D01*
X340286Y-6093060D01*
X432684Y-6126120D01*
X521398Y-6168079D01*
X605571Y-6218530D01*
X684394Y-6276990D01*
X757108Y-6342893D01*
X823011Y-6415607D01*
X881471Y-6494430D01*
X931922Y-6578603D01*
X973881Y-6667317D01*
X1006941Y-6759715D01*
X1030786Y-6854910D01*
X1045186Y-6951983D01*
X1050001Y-7050000D01*
X1050001Y-10050000D01*
X1045186Y-10148017D01*
X1030786Y-10245090D01*
X1006941Y-10340285D01*
X973881Y-10432683D01*
X931922Y-10521397D01*
X881471Y-10605570D01*
X823011Y-10684393D01*
X757108Y-10757107D01*
X684394Y-10823010D01*
X605571Y-10881470D01*
X521398Y-10931921D01*
X432684Y-10973880D01*
X340286Y-11006940D01*
X245091Y-11030785D01*
X148018Y-11045185D01*
X50001Y-11050000D01*
X49999Y-11050000D01*
X-48018Y-11045185D01*
X-145091Y-11030785D01*
X-240286Y-11006940D01*
X-332684Y-10973880D01*
X-421398Y-10931921D01*
X-505571Y-10881470D01*
X-584394Y-10823010D01*
X-657108Y-10757107D01*
X-723011Y-10684393D01*
X-781471Y-10605570D01*
X-831922Y-10521397D01*
X-873881Y-10432683D01*
X-906941Y-10340285D01*
X-930786Y-10245090D01*
X-945186Y-10148017D01*
X-950001Y-10050000D01*
X-950001Y-7050000D01*
X-945186Y-6951983D01*
X-930786Y-6854910D01*
X-906941Y-6759715D01*
X-873881Y-6667317D01*
X-831922Y-6578603D01*
X-781471Y-6494430D01*
X-723011Y-6415607D01*
X-657108Y-6342893D01*
X-584394Y-6276990D01*
X-505571Y-6218530D01*
X-421398Y-6168079D01*
X-332684Y-6126120D01*
X-240286Y-6093060D01*
X-145091Y-6069215D01*
X-48018Y-6054815D01*
X49999Y-6050000D01*
X50001Y-6050000D01*
X148018Y-6054815D01*
X148018Y-6054815D01*
G37*
D12*
X50000Y-8550000D03*
D10*
G36*
X2648018Y-6054815D02*
X2745091Y-6069215D01*
X2840286Y-6093060D01*
X2932684Y-6126120D01*
X3021398Y-6168079D01*
X3105571Y-6218530D01*
X3184394Y-6276990D01*
X3257108Y-6342893D01*
X3323011Y-6415607D01*
X3381471Y-6494430D01*
X3431922Y-6578603D01*
X3473881Y-6667317D01*
X3506941Y-6759715D01*
X3530786Y-6854910D01*
X3545186Y-6951983D01*
X3550001Y-7050000D01*
X3550001Y-10050000D01*
X3545186Y-10148017D01*
X3530786Y-10245090D01*
X3506941Y-10340285D01*
X3473881Y-10432683D01*
X3431922Y-10521397D01*
X3381471Y-10605570D01*
X3323011Y-10684393D01*
X3257108Y-10757107D01*
X3184394Y-10823010D01*
X3105571Y-10881470D01*
X3021398Y-10931921D01*
X2932684Y-10973880D01*
X2840286Y-11006940D01*
X2745091Y-11030785D01*
X2648018Y-11045185D01*
X2550001Y-11050000D01*
X2549999Y-11050000D01*
X2451982Y-11045185D01*
X2354909Y-11030785D01*
X2259714Y-11006940D01*
X2167316Y-10973880D01*
X2078602Y-10931921D01*
X1994429Y-10881470D01*
X1915606Y-10823010D01*
X1842892Y-10757107D01*
X1776989Y-10684393D01*
X1718529Y-10605570D01*
X1668078Y-10521397D01*
X1626119Y-10432683D01*
X1593059Y-10340285D01*
X1569214Y-10245090D01*
X1554814Y-10148017D01*
X1549999Y-10050000D01*
X1549999Y-7050000D01*
X1554814Y-6951983D01*
X1569214Y-6854910D01*
X1593059Y-6759715D01*
X1626119Y-6667317D01*
X1668078Y-6578603D01*
X1718529Y-6494430D01*
X1776989Y-6415607D01*
X1842892Y-6342893D01*
X1915606Y-6276990D01*
X1994429Y-6218530D01*
X2078602Y-6168079D01*
X2167316Y-6126120D01*
X2259714Y-6093060D01*
X2354909Y-6069215D01*
X2451982Y-6054815D01*
X2549999Y-6050000D01*
X2550001Y-6050000D01*
X2648018Y-6054815D01*
X2648018Y-6054815D01*
G37*
D12*
X2550000Y-8550000D03*
D10*
G36*
X-2351982Y-6054815D02*
X-2254909Y-6069215D01*
X-2159714Y-6093060D01*
X-2067316Y-6126120D01*
X-1978602Y-6168079D01*
X-1894429Y-6218530D01*
X-1815606Y-6276990D01*
X-1742892Y-6342893D01*
X-1676989Y-6415607D01*
X-1618529Y-6494430D01*
X-1568078Y-6578603D01*
X-1526119Y-6667317D01*
X-1493059Y-6759715D01*
X-1469214Y-6854910D01*
X-1454814Y-6951983D01*
X-1449999Y-7050000D01*
X-1449999Y-10050000D01*
X-1454814Y-10148017D01*
X-1469214Y-10245090D01*
X-1493059Y-10340285D01*
X-1526119Y-10432683D01*
X-1568078Y-10521397D01*
X-1618529Y-10605570D01*
X-1676989Y-10684393D01*
X-1742892Y-10757107D01*
X-1815606Y-10823010D01*
X-1894429Y-10881470D01*
X-1978602Y-10931921D01*
X-2067316Y-10973880D01*
X-2159714Y-11006940D01*
X-2254909Y-11030785D01*
X-2351982Y-11045185D01*
X-2449999Y-11050000D01*
X-2450001Y-11050000D01*
X-2548018Y-11045185D01*
X-2645091Y-11030785D01*
X-2740286Y-11006940D01*
X-2832684Y-10973880D01*
X-2921398Y-10931921D01*
X-3005571Y-10881470D01*
X-3084394Y-10823010D01*
X-3157108Y-10757107D01*
X-3223011Y-10684393D01*
X-3281471Y-10605570D01*
X-3331922Y-10521397D01*
X-3373881Y-10432683D01*
X-3406941Y-10340285D01*
X-3430786Y-10245090D01*
X-3445186Y-10148017D01*
X-3450001Y-10050000D01*
X-3450001Y-7050000D01*
X-3445186Y-6951983D01*
X-3430786Y-6854910D01*
X-3406941Y-6759715D01*
X-3373881Y-6667317D01*
X-3331922Y-6578603D01*
X-3281471Y-6494430D01*
X-3223011Y-6415607D01*
X-3157108Y-6342893D01*
X-3084394Y-6276990D01*
X-3005571Y-6218530D01*
X-2921398Y-6168079D01*
X-2832684Y-6126120D01*
X-2740286Y-6093060D01*
X-2645091Y-6069215D01*
X-2548018Y-6054815D01*
X-2450001Y-6050000D01*
X-2449999Y-6050000D01*
X-2351982Y-6054815D01*
X-2351982Y-6054815D01*
G37*
D12*
X-2450000Y-8550000D03*
D11*
X-3450000Y-5150000D03*
X1100000Y5900000D03*
X50000Y-7150000D03*
X3550000Y-5150000D03*
X5300000Y1850000D03*
D14*
X-2219670Y2730330D03*
D10*
G36*
X-2201992Y3278338D02*
X-1671662Y2748008D01*
X-2237348Y2182322D01*
X-2767678Y2712652D01*
X-2201992Y3278338D01*
X-2201992Y3278338D01*
G37*
D14*
X-3280330Y1669670D03*
D10*
G36*
X-3262652Y2217678D02*
X-2732322Y1687348D01*
X-3298008Y1121662D01*
X-3828338Y1651992D01*
X-3262652Y2217678D01*
X-3262652Y2217678D01*
G37*
D11*
X50000Y-9950000D03*
X-2450000Y-5150000D03*
X2550000Y-5150000D03*
D15*
X2913782Y451041D02*
X3901041Y451041D01*
X3901041Y451041D02*
X5300000Y1850000D01*
X7757464Y4021930D02*
X7471930Y4021930D01*
X7471930Y4021930D02*
X5300000Y1850000D01*
X2550000Y-5150000D02*
X2550000Y-8550000D01*
X1850000Y5200000D02*
X1864466Y5200000D01*
X1864466Y5200000D02*
X4221930Y7557464D01*
X-2450000Y-5150000D02*
X-2450000Y-8550000D01*
X50000Y-7150000D02*
X50000Y-3614823D01*
X50000Y-3614823D02*
X-551041Y-3013782D01*
X651041Y2713782D02*
X1075304Y2289519D01*
X1075304Y2289519D02*
X2439519Y2289519D01*
X2439519Y2289519D02*
X4650001Y4500001D01*
X4650001Y4500001D02*
X4950000Y4800000D01*
D16*
G36*
X409703Y4075990D02*
X376633Y4048850D01*
X-684027Y2988190D01*
X-763379Y2891499D01*
X-822344Y2781185D01*
X-858654Y2661487D01*
X-870914Y2537005D01*
X-858654Y2412523D01*
X-822344Y2292825D01*
X-763379Y2182511D01*
X-684027Y2085820D01*
X23079Y1378714D01*
X119770Y1299362D01*
X230084Y1240397D01*
X349782Y1204087D01*
X474264Y1191827D01*
X598746Y1204087D01*
X718444Y1240397D01*
X828758Y1299362D01*
X925449Y1378714D01*
X1007620Y1460885D01*
X1063646Y1454600D01*
X1072228Y1454540D01*
X1072389Y1454524D01*
X1072539Y1454538D01*
X1075304Y1454519D01*
X2439519Y1454519D01*
X2516266Y1462044D01*
X2593119Y1468768D01*
X2597333Y1469992D01*
X2601705Y1470421D01*
X2675600Y1492731D01*
X2749611Y1514234D01*
X2753505Y1516253D01*
X2757713Y1517523D01*
X2825830Y1553742D01*
X2894293Y1589229D01*
X2897726Y1591970D01*
X2901601Y1594030D01*
X2910181Y1601028D01*
X3716376Y803059D01*
X2463715Y-356812D01*
X2460197Y-360197D01*
X1446865Y-1373529D01*
X-2183564Y2007753D01*
X-2201785Y2041842D01*
X-2281137Y2138533D01*
X-2811467Y2668863D01*
X-2908158Y2748215D01*
X-3018472Y2807180D01*
X-3041083Y2814039D01*
X-685701Y5160217D01*
X409703Y4075990D01*
X409703Y4075990D01*
G37*
X409703Y4075990D02*
X376633Y4048850D01*
X-684027Y2988190D01*
X-763379Y2891499D01*
X-822344Y2781185D01*
X-858654Y2661487D01*
X-870914Y2537005D01*
X-858654Y2412523D01*
X-822344Y2292825D01*
X-763379Y2182511D01*
X-684027Y2085820D01*
X23079Y1378714D01*
X119770Y1299362D01*
X230084Y1240397D01*
X349782Y1204087D01*
X474264Y1191827D01*
X598746Y1204087D01*
X718444Y1240397D01*
X828758Y1299362D01*
X925449Y1378714D01*
X1007620Y1460885D01*
X1063646Y1454600D01*
X1072228Y1454540D01*
X1072389Y1454524D01*
X1072539Y1454538D01*
X1075304Y1454519D01*
X2439519Y1454519D01*
X2516266Y1462044D01*
X2593119Y1468768D01*
X2597333Y1469992D01*
X2601705Y1470421D01*
X2675600Y1492731D01*
X2749611Y1514234D01*
X2753505Y1516253D01*
X2757713Y1517523D01*
X2825830Y1553742D01*
X2894293Y1589229D01*
X2897726Y1591970D01*
X2901601Y1594030D01*
X2910181Y1601028D01*
X3716376Y803059D01*
X2463715Y-356812D01*
X2460197Y-360197D01*
X1446865Y-1373529D01*
X-2183564Y2007753D01*
X-2201785Y2041842D01*
X-2281137Y2138533D01*
X-2811467Y2668863D01*
X-2908158Y2748215D01*
X-3018472Y2807180D01*
X-3041083Y2814039D01*
X-685701Y5160217D01*
X409703Y4075990D01*
G36*
X-277000Y-809278D02*
X-277000Y-1501406D01*
X-374264Y-1491827D01*
X-498746Y-1504087D01*
X-618444Y-1540397D01*
X-728758Y-1599362D01*
X-825449Y-1678714D01*
X-1886109Y-2739374D01*
X-1965461Y-2836065D01*
X-2024426Y-2946379D01*
X-2060736Y-3066077D01*
X-2072996Y-3190559D01*
X-2060736Y-3315041D01*
X-2024426Y-3434739D01*
X-1965461Y-3545053D01*
X-1886109Y-3641744D01*
X-1179003Y-4348850D01*
X-1082312Y-4428202D01*
X-971998Y-4487167D01*
X-852300Y-4523477D01*
X-785000Y-4530105D01*
X-785000Y-5647870D01*
X-860065Y-5687993D01*
X-1108293Y-5891708D01*
X-1312008Y-6139936D01*
X-1463382Y-6423137D01*
X-1556598Y-6730428D01*
X-1588073Y-7050000D01*
X-1588073Y-7815000D01*
X-4215000Y-7815000D01*
X-4215000Y1644710D01*
X-3585283Y2271966D01*
X-277000Y-809278D01*
X-277000Y-809278D01*
G37*
X-277000Y-809278D02*
X-277000Y-1501406D01*
X-374264Y-1491827D01*
X-498746Y-1504087D01*
X-618444Y-1540397D01*
X-728758Y-1599362D01*
X-825449Y-1678714D01*
X-1886109Y-2739374D01*
X-1965461Y-2836065D01*
X-2024426Y-2946379D01*
X-2060736Y-3066077D01*
X-2072996Y-3190559D01*
X-2060736Y-3315041D01*
X-2024426Y-3434739D01*
X-1965461Y-3545053D01*
X-1886109Y-3641744D01*
X-1179003Y-4348850D01*
X-1082312Y-4428202D01*
X-971998Y-4487167D01*
X-852300Y-4523477D01*
X-785000Y-4530105D01*
X-785000Y-5647870D01*
X-860065Y-5687993D01*
X-1108293Y-5891708D01*
X-1312008Y-6139936D01*
X-1463382Y-6423137D01*
X-1556598Y-6730428D01*
X-1588073Y-7050000D01*
X-1588073Y-7815000D01*
X-4215000Y-7815000D01*
X-4215000Y1644710D01*
X-3585283Y2271966D01*
X-277000Y-809278D01*
G36*
X4311681Y6428267D02*
X3770744Y5887330D01*
X3567029Y5639102D01*
X3415655Y5355901D01*
X3322439Y5048610D01*
X3290964Y4729038D01*
X3322439Y4409466D01*
X3335510Y4366378D01*
X2272993Y3303861D01*
X-145818Y5697990D01*
X2453148Y8286800D01*
X4311681Y6428267D01*
X4311681Y6428267D01*
G37*
X4311681Y6428267D02*
X3770744Y5887330D01*
X3567029Y5639102D01*
X3415655Y5355901D01*
X3322439Y5048610D01*
X3290964Y4729038D01*
X3322439Y4409466D01*
X3335510Y4366378D01*
X2272993Y3303861D01*
X-145818Y5697990D01*
X2453148Y8286800D01*
X4311681Y6428267D01*
G36*
X8452664Y2287283D02*
X4563332Y-1149201D01*
X4550466Y-1163029D01*
X4535747Y-1174863D01*
X4501701Y-1215437D01*
X4465617Y-1254218D01*
X4455681Y-1270282D01*
X4443542Y-1284749D01*
X4418026Y-1331162D01*
X4390160Y-1376216D01*
X4383533Y-1393905D01*
X4374436Y-1410453D01*
X4358421Y-1460939D01*
X4339837Y-1510546D01*
X4336773Y-1529183D01*
X4331062Y-1547185D01*
X4325158Y-1599819D01*
X4316563Y-1652092D01*
X4317177Y-1670972D01*
X4315072Y-1689738D01*
X4315000Y-1700000D01*
X4315000Y-7815000D01*
X1688073Y-7815000D01*
X1688073Y-7050000D01*
X1656598Y-6730428D01*
X1563382Y-6423137D01*
X1412008Y-6139936D01*
X1208293Y-5891708D01*
X960065Y-5687993D01*
X885000Y-5647870D01*
X885000Y-3614823D01*
X877471Y-3538031D01*
X870751Y-3461223D01*
X869527Y-3457009D01*
X869098Y-3452637D01*
X846792Y-3378756D01*
X825285Y-3304730D01*
X823266Y-3300834D01*
X821996Y-3296629D01*
X804345Y-3263432D01*
X863379Y-3191499D01*
X922344Y-3081185D01*
X958654Y-2961487D01*
X970914Y-2837005D01*
X958654Y-2712523D01*
X922344Y-2592825D01*
X863379Y-2482511D01*
X784027Y-2385820D01*
X377000Y-1978793D01*
X377000Y-724189D01*
X1363443Y-1642935D01*
X1401399Y-1667333D01*
X1450000Y-1677000D01*
X1498601Y-1667333D01*
X1539803Y-1639803D01*
X2638081Y-541526D01*
X3986285Y706812D01*
X4017580Y752002D01*
X4026998Y800651D01*
X4017082Y849202D01*
X3989341Y890262D01*
X3100702Y1769834D01*
X4489652Y3158784D01*
X4609466Y3122439D01*
X4929038Y3090964D01*
X5248610Y3122439D01*
X5555901Y3215655D01*
X5839102Y3367029D01*
X6087330Y3570744D01*
X6150002Y3633416D01*
X6170557Y3644403D01*
X6192075Y3662529D01*
X6438319Y3921733D01*
X6628267Y4111681D01*
X8452664Y2287283D01*
X8452664Y2287283D01*
G37*
X8452664Y2287283D02*
X4563332Y-1149201D01*
X4550466Y-1163029D01*
X4535747Y-1174863D01*
X4501701Y-1215437D01*
X4465617Y-1254218D01*
X4455681Y-1270282D01*
X4443542Y-1284749D01*
X4418026Y-1331162D01*
X4390160Y-1376216D01*
X4383533Y-1393905D01*
X4374436Y-1410453D01*
X4358421Y-1460939D01*
X4339837Y-1510546D01*
X4336773Y-1529183D01*
X4331062Y-1547185D01*
X4325158Y-1599819D01*
X4316563Y-1652092D01*
X4317177Y-1670972D01*
X4315072Y-1689738D01*
X4315000Y-1700000D01*
X4315000Y-7815000D01*
X1688073Y-7815000D01*
X1688073Y-7050000D01*
X1656598Y-6730428D01*
X1563382Y-6423137D01*
X1412008Y-6139936D01*
X1208293Y-5891708D01*
X960065Y-5687993D01*
X885000Y-5647870D01*
X885000Y-3614823D01*
X877471Y-3538031D01*
X870751Y-3461223D01*
X869527Y-3457009D01*
X869098Y-3452637D01*
X846792Y-3378756D01*
X825285Y-3304730D01*
X823266Y-3300834D01*
X821996Y-3296629D01*
X804345Y-3263432D01*
X863379Y-3191499D01*
X922344Y-3081185D01*
X958654Y-2961487D01*
X970914Y-2837005D01*
X958654Y-2712523D01*
X922344Y-2592825D01*
X863379Y-2482511D01*
X784027Y-2385820D01*
X377000Y-1978793D01*
X377000Y-724189D01*
X1363443Y-1642935D01*
X1401399Y-1667333D01*
X1450000Y-1677000D01*
X1498601Y-1667333D01*
X1539803Y-1639803D01*
X2638081Y-541526D01*
X3986285Y706812D01*
X4017580Y752002D01*
X4026998Y800651D01*
X4017082Y849202D01*
X3989341Y890262D01*
X3100702Y1769834D01*
X4489652Y3158784D01*
X4609466Y3122439D01*
X4929038Y3090964D01*
X5248610Y3122439D01*
X5555901Y3215655D01*
X5839102Y3367029D01*
X6087330Y3570744D01*
X6150002Y3633416D01*
X6170557Y3644403D01*
X6192075Y3662529D01*
X6438319Y3921733D01*
X6628267Y4111681D01*
X8452664Y2287283D01*
M02*
