G04 #@! TF.GenerationSoftware,KiCad,Pcbnew,(2017-05-31 revision c0bb8a30c)-makepkg*
G04 #@! TF.CreationDate,2017-07-13T16:12:16-05:00*
G04 #@! TF.ProjectId,45 Neo,3435204E656F2E6B696361645F706362,rev?*
G04 #@! TF.FileFunction,Soldermask,Top*
G04 #@! TF.FilePolarity,Negative*
%FSLAX46Y46*%
G04 Gerber Fmt 4.6, Leading zero omitted, Abs format (unit mm)*
G04 Created by KiCad (PCBNEW (2017-05-31 revision c0bb8a30c)-makepkg) date 07/13/17 16:12:16*
%MOMM*%
%LPD*%
G01*
G04 APERTURE LIST*
%ADD10C,0.100000*%
%ADD11C,2.400000*%
%ADD12C,1.400000*%
%ADD13C,1.150000*%
G04 APERTURE END LIST*
D10*
G36*
X8935744Y6276813D02*
X9052231Y6259533D01*
X9166465Y6230919D01*
X9277343Y6191246D01*
X9383799Y6140897D01*
X9484807Y6080355D01*
X9579395Y6010204D01*
X9666651Y5931119D01*
X9666653Y5931117D01*
X9745738Y5843861D01*
X9815889Y5749273D01*
X9876431Y5648265D01*
X9926780Y5541809D01*
X9966453Y5430931D01*
X9995067Y5316697D01*
X10012347Y5200210D01*
X10018125Y5082589D01*
X10012347Y4964968D01*
X9995067Y4848481D01*
X9966453Y4734247D01*
X9926780Y4623369D01*
X9876431Y4516913D01*
X9815889Y4415905D01*
X9745738Y4321317D01*
X9666653Y4234061D01*
X7545333Y2112741D01*
X7458077Y2033656D01*
X7363489Y1963505D01*
X7262481Y1902963D01*
X7156025Y1852614D01*
X7045147Y1812941D01*
X6930913Y1784327D01*
X6814426Y1767047D01*
X6696805Y1761269D01*
X6579184Y1767047D01*
X6462697Y1784327D01*
X6348463Y1812941D01*
X6237585Y1852614D01*
X6131129Y1902963D01*
X6030121Y1963505D01*
X5935533Y2033656D01*
X5848277Y2112741D01*
X5848275Y2112743D01*
X5769190Y2199999D01*
X5699039Y2294587D01*
X5638497Y2395595D01*
X5588148Y2502051D01*
X5548475Y2612929D01*
X5519861Y2727163D01*
X5502581Y2843650D01*
X5496803Y2961271D01*
X5502581Y3078892D01*
X5519861Y3195379D01*
X5548475Y3309613D01*
X5588148Y3420491D01*
X5638497Y3526947D01*
X5699039Y3627955D01*
X5769190Y3722543D01*
X5848275Y3809799D01*
X7969595Y5931119D01*
X8056851Y6010204D01*
X8151439Y6080355D01*
X8252447Y6140897D01*
X8358903Y6191246D01*
X8469781Y6230919D01*
X8584015Y6259533D01*
X8700502Y6276813D01*
X8818123Y6282591D01*
X8935744Y6276813D01*
X8935744Y6276813D01*
G37*
D11*
X7757464Y4021930D03*
D10*
G36*
X5400210Y9812347D02*
X5516697Y9795067D01*
X5630931Y9766453D01*
X5741809Y9726780D01*
X5848265Y9676431D01*
X5949273Y9615889D01*
X6043861Y9545738D01*
X6131117Y9466653D01*
X6131119Y9466651D01*
X6210204Y9379395D01*
X6280355Y9284807D01*
X6340897Y9183799D01*
X6391246Y9077343D01*
X6430919Y8966465D01*
X6459533Y8852231D01*
X6476813Y8735744D01*
X6482591Y8618123D01*
X6476813Y8500502D01*
X6459533Y8384015D01*
X6430919Y8269781D01*
X6391246Y8158903D01*
X6340897Y8052447D01*
X6280355Y7951439D01*
X6210204Y7856851D01*
X6131119Y7769595D01*
X4009799Y5648275D01*
X3922543Y5569190D01*
X3827955Y5499039D01*
X3726947Y5438497D01*
X3620491Y5388148D01*
X3509613Y5348475D01*
X3395379Y5319861D01*
X3278892Y5302581D01*
X3161271Y5296803D01*
X3043650Y5302581D01*
X2927163Y5319861D01*
X2812929Y5348475D01*
X2702051Y5388148D01*
X2595595Y5438497D01*
X2494587Y5499039D01*
X2399999Y5569190D01*
X2312743Y5648275D01*
X2312741Y5648277D01*
X2233656Y5735533D01*
X2163505Y5830121D01*
X2102963Y5931129D01*
X2052614Y6037585D01*
X2012941Y6148463D01*
X1984327Y6262697D01*
X1967047Y6379184D01*
X1961269Y6496805D01*
X1967047Y6614426D01*
X1984327Y6730913D01*
X2012941Y6845147D01*
X2052614Y6956025D01*
X2102963Y7062481D01*
X2163505Y7163489D01*
X2233656Y7258077D01*
X2312741Y7345333D01*
X4434061Y9466653D01*
X4521317Y9545738D01*
X4615905Y9615889D01*
X4716913Y9676431D01*
X4823369Y9726780D01*
X4934247Y9766453D01*
X5048481Y9795067D01*
X5164968Y9812347D01*
X5282589Y9818125D01*
X5400210Y9812347D01*
X5400210Y9812347D01*
G37*
D11*
X4221930Y7557464D03*
D10*
G36*
X7167977Y8044580D02*
X7284464Y8027300D01*
X7398698Y7998686D01*
X7509576Y7959013D01*
X7616032Y7908664D01*
X7717040Y7848122D01*
X7811628Y7777971D01*
X7898884Y7698886D01*
X7898886Y7698884D01*
X7977971Y7611628D01*
X8048122Y7517040D01*
X8108664Y7416032D01*
X8159013Y7309576D01*
X8198686Y7198698D01*
X8227300Y7084464D01*
X8244580Y6967977D01*
X8250358Y6850356D01*
X8244580Y6732735D01*
X8227300Y6616248D01*
X8198686Y6502014D01*
X8159013Y6391136D01*
X8108664Y6284680D01*
X8048122Y6183672D01*
X7977971Y6089084D01*
X7898886Y6001828D01*
X5777566Y3880508D01*
X5690310Y3801423D01*
X5595722Y3731272D01*
X5494714Y3670730D01*
X5388258Y3620381D01*
X5277380Y3580708D01*
X5163146Y3552094D01*
X5046659Y3534814D01*
X4929038Y3529036D01*
X4811417Y3534814D01*
X4694930Y3552094D01*
X4580696Y3580708D01*
X4469818Y3620381D01*
X4363362Y3670730D01*
X4262354Y3731272D01*
X4167766Y3801423D01*
X4080510Y3880508D01*
X4080508Y3880510D01*
X4001423Y3967766D01*
X3931272Y4062354D01*
X3870730Y4163362D01*
X3820381Y4269818D01*
X3780708Y4380696D01*
X3752094Y4494930D01*
X3734814Y4611417D01*
X3729036Y4729038D01*
X3734814Y4846659D01*
X3752094Y4963146D01*
X3780708Y5077380D01*
X3820381Y5188258D01*
X3870730Y5294714D01*
X3931272Y5395722D01*
X4001423Y5490310D01*
X4080508Y5577566D01*
X6201828Y7698886D01*
X6289084Y7777971D01*
X6383672Y7848122D01*
X6484680Y7908664D01*
X6591136Y7959013D01*
X6702014Y7998686D01*
X6816248Y8027300D01*
X6932735Y8044580D01*
X7050356Y8050358D01*
X7167977Y8044580D01*
X7167977Y8044580D01*
G37*
D11*
X5989697Y5789697D03*
D12*
X-2813782Y-751041D03*
D10*
G36*
X-2637005Y415685D02*
X-1647056Y-574264D01*
X-2990559Y-1917767D01*
X-3980508Y-927818D01*
X-2637005Y415685D01*
X-2637005Y415685D01*
G37*
D12*
X-551041Y-3013782D03*
D10*
G36*
X-374264Y-1847056D02*
X615685Y-2837005D01*
X-727818Y-4180508D01*
X-1717767Y-3190559D01*
X-374264Y-1847056D01*
X-374264Y-1847056D01*
G37*
D12*
X2913782Y451041D03*
D10*
G36*
X3090559Y1617767D02*
X4080508Y627818D01*
X2737005Y-715685D01*
X1747056Y274264D01*
X3090559Y1617767D01*
X3090559Y1617767D01*
G37*
D12*
X651041Y2713782D03*
D10*
G36*
X827818Y3880508D02*
X1817767Y2890559D01*
X474264Y1547056D01*
X-515685Y2537005D01*
X827818Y3880508D01*
X827818Y3880508D01*
G37*
G36*
X167622Y-5855778D02*
X284109Y-5873058D01*
X398343Y-5901672D01*
X509221Y-5941345D01*
X615677Y-5991694D01*
X716685Y-6052236D01*
X811273Y-6122387D01*
X898529Y-6201472D01*
X977614Y-6288728D01*
X1047765Y-6383316D01*
X1108307Y-6484324D01*
X1158656Y-6590780D01*
X1198329Y-6701658D01*
X1226943Y-6815892D01*
X1244223Y-6932379D01*
X1250001Y-7050000D01*
X1250001Y-10050000D01*
X1244223Y-10167621D01*
X1226943Y-10284108D01*
X1198329Y-10398342D01*
X1158656Y-10509220D01*
X1108307Y-10615676D01*
X1047765Y-10716684D01*
X977614Y-10811272D01*
X898529Y-10898528D01*
X811273Y-10977613D01*
X716685Y-11047764D01*
X615677Y-11108306D01*
X509221Y-11158655D01*
X398343Y-11198328D01*
X284109Y-11226942D01*
X167622Y-11244222D01*
X50001Y-11250000D01*
X49999Y-11250000D01*
X-67622Y-11244222D01*
X-184109Y-11226942D01*
X-298343Y-11198328D01*
X-409221Y-11158655D01*
X-515677Y-11108306D01*
X-616685Y-11047764D01*
X-711273Y-10977613D01*
X-798529Y-10898528D01*
X-877614Y-10811272D01*
X-947765Y-10716684D01*
X-1008307Y-10615676D01*
X-1058656Y-10509220D01*
X-1098329Y-10398342D01*
X-1126943Y-10284108D01*
X-1144223Y-10167621D01*
X-1150001Y-10050000D01*
X-1150001Y-7050000D01*
X-1144223Y-6932379D01*
X-1126943Y-6815892D01*
X-1098329Y-6701658D01*
X-1058656Y-6590780D01*
X-1008307Y-6484324D01*
X-947765Y-6383316D01*
X-877614Y-6288728D01*
X-798529Y-6201472D01*
X-711273Y-6122387D01*
X-616685Y-6052236D01*
X-515677Y-5991694D01*
X-409221Y-5941345D01*
X-298343Y-5901672D01*
X-184109Y-5873058D01*
X-67622Y-5855778D01*
X49999Y-5850000D01*
X50001Y-5850000D01*
X167622Y-5855778D01*
X167622Y-5855778D01*
G37*
D11*
X50000Y-8550000D03*
D10*
G36*
X2667622Y-5855778D02*
X2784109Y-5873058D01*
X2898343Y-5901672D01*
X3009221Y-5941345D01*
X3115677Y-5991694D01*
X3216685Y-6052236D01*
X3311273Y-6122387D01*
X3398529Y-6201472D01*
X3477614Y-6288728D01*
X3547765Y-6383316D01*
X3608307Y-6484324D01*
X3658656Y-6590780D01*
X3698329Y-6701658D01*
X3726943Y-6815892D01*
X3744223Y-6932379D01*
X3750001Y-7050000D01*
X3750001Y-10050000D01*
X3744223Y-10167621D01*
X3726943Y-10284108D01*
X3698329Y-10398342D01*
X3658656Y-10509220D01*
X3608307Y-10615676D01*
X3547765Y-10716684D01*
X3477614Y-10811272D01*
X3398529Y-10898528D01*
X3311273Y-10977613D01*
X3216685Y-11047764D01*
X3115677Y-11108306D01*
X3009221Y-11158655D01*
X2898343Y-11198328D01*
X2784109Y-11226942D01*
X2667622Y-11244222D01*
X2550001Y-11250000D01*
X2549999Y-11250000D01*
X2432378Y-11244222D01*
X2315891Y-11226942D01*
X2201657Y-11198328D01*
X2090779Y-11158655D01*
X1984323Y-11108306D01*
X1883315Y-11047764D01*
X1788727Y-10977613D01*
X1701471Y-10898528D01*
X1622386Y-10811272D01*
X1552235Y-10716684D01*
X1491693Y-10615676D01*
X1441344Y-10509220D01*
X1401671Y-10398342D01*
X1373057Y-10284108D01*
X1355777Y-10167621D01*
X1349999Y-10050000D01*
X1349999Y-7050000D01*
X1355777Y-6932379D01*
X1373057Y-6815892D01*
X1401671Y-6701658D01*
X1441344Y-6590780D01*
X1491693Y-6484324D01*
X1552235Y-6383316D01*
X1622386Y-6288728D01*
X1701471Y-6201472D01*
X1788727Y-6122387D01*
X1883315Y-6052236D01*
X1984323Y-5991694D01*
X2090779Y-5941345D01*
X2201657Y-5901672D01*
X2315891Y-5873058D01*
X2432378Y-5855778D01*
X2549999Y-5850000D01*
X2550001Y-5850000D01*
X2667622Y-5855778D01*
X2667622Y-5855778D01*
G37*
D11*
X2550000Y-8550000D03*
D10*
G36*
X-2332378Y-5855778D02*
X-2215891Y-5873058D01*
X-2101657Y-5901672D01*
X-1990779Y-5941345D01*
X-1884323Y-5991694D01*
X-1783315Y-6052236D01*
X-1688727Y-6122387D01*
X-1601471Y-6201472D01*
X-1522386Y-6288728D01*
X-1452235Y-6383316D01*
X-1391693Y-6484324D01*
X-1341344Y-6590780D01*
X-1301671Y-6701658D01*
X-1273057Y-6815892D01*
X-1255777Y-6932379D01*
X-1249999Y-7050000D01*
X-1249999Y-10050000D01*
X-1255777Y-10167621D01*
X-1273057Y-10284108D01*
X-1301671Y-10398342D01*
X-1341344Y-10509220D01*
X-1391693Y-10615676D01*
X-1452235Y-10716684D01*
X-1522386Y-10811272D01*
X-1601471Y-10898528D01*
X-1688727Y-10977613D01*
X-1783315Y-11047764D01*
X-1884323Y-11108306D01*
X-1990779Y-11158655D01*
X-2101657Y-11198328D01*
X-2215891Y-11226942D01*
X-2332378Y-11244222D01*
X-2449999Y-11250000D01*
X-2450001Y-11250000D01*
X-2567622Y-11244222D01*
X-2684109Y-11226942D01*
X-2798343Y-11198328D01*
X-2909221Y-11158655D01*
X-3015677Y-11108306D01*
X-3116685Y-11047764D01*
X-3211273Y-10977613D01*
X-3298529Y-10898528D01*
X-3377614Y-10811272D01*
X-3447765Y-10716684D01*
X-3508307Y-10615676D01*
X-3558656Y-10509220D01*
X-3598329Y-10398342D01*
X-3626943Y-10284108D01*
X-3644223Y-10167621D01*
X-3650001Y-10050000D01*
X-3650001Y-7050000D01*
X-3644223Y-6932379D01*
X-3626943Y-6815892D01*
X-3598329Y-6701658D01*
X-3558656Y-6590780D01*
X-3508307Y-6484324D01*
X-3447765Y-6383316D01*
X-3377614Y-6288728D01*
X-3298529Y-6201472D01*
X-3211273Y-6122387D01*
X-3116685Y-6052236D01*
X-3015677Y-5991694D01*
X-2909221Y-5941345D01*
X-2798343Y-5901672D01*
X-2684109Y-5873058D01*
X-2567622Y-5855778D01*
X-2450001Y-5850000D01*
X-2449999Y-5850000D01*
X-2332378Y-5855778D01*
X-2332378Y-5855778D01*
G37*
D11*
X-2450000Y-8550000D03*
D13*
X-2219670Y2730330D03*
D10*
G36*
X-2201992Y3561180D02*
X-1388820Y2748008D01*
X-2237348Y1899480D01*
X-3050520Y2712652D01*
X-2201992Y3561180D01*
X-2201992Y3561180D01*
G37*
D13*
X-3280330Y1669670D03*
D10*
G36*
X-3262652Y2500520D02*
X-2449480Y1687348D01*
X-3298008Y838820D01*
X-4111180Y1651992D01*
X-3262652Y2500520D01*
X-3262652Y2500520D01*
G37*
M02*
