G04 #@! TF.GenerationSoftware,KiCad,Pcbnew,(2017-05-31 revision c0bb8a30c)-makepkg*
G04 #@! TF.CreationDate,2017-07-13T16:12:39-05:00*
G04 #@! TF.ProjectId,45 Neo,3435204E656F2E6B696361645F706362,rev?*
G04 #@! TF.FileFunction,Soldermask,Bot*
G04 #@! TF.FilePolarity,Negative*
%FSLAX46Y46*%
G04 Gerber Fmt 4.6, Leading zero omitted, Abs format (unit mm)*
G04 Created by KiCad (PCBNEW (2017-05-31 revision c0bb8a30c)-makepkg) date 07/13/17 16:12:39*
%MOMM*%
%LPD*%
G01*
G04 APERTURE LIST*
%ADD10C,0.100000*%
%ADD11C,2.400000*%
G04 APERTURE END LIST*
D10*
G36*
X105350210Y9962347D02*
X105466697Y9945067D01*
X105580931Y9916453D01*
X105691809Y9876780D01*
X105798265Y9826431D01*
X105899273Y9765889D01*
X105993861Y9695738D01*
X106081117Y9616653D01*
X106081119Y9616651D01*
X106160204Y9529395D01*
X106230355Y9434807D01*
X106290897Y9333799D01*
X106341246Y9227343D01*
X106380919Y9116465D01*
X106409533Y9002231D01*
X106426813Y8885744D01*
X106432591Y8768123D01*
X106426813Y8650502D01*
X106409533Y8534015D01*
X106380919Y8419781D01*
X106341246Y8308903D01*
X106290897Y8202447D01*
X106230355Y8101439D01*
X106160204Y8006851D01*
X106081119Y7919595D01*
X103959799Y5798275D01*
X103872543Y5719190D01*
X103777955Y5649039D01*
X103676947Y5588497D01*
X103570491Y5538148D01*
X103459613Y5498475D01*
X103345379Y5469861D01*
X103228892Y5452581D01*
X103111271Y5446803D01*
X102993650Y5452581D01*
X102877163Y5469861D01*
X102762929Y5498475D01*
X102652051Y5538148D01*
X102545595Y5588497D01*
X102444587Y5649039D01*
X102349999Y5719190D01*
X102262743Y5798275D01*
X102262741Y5798277D01*
X102183656Y5885533D01*
X102113505Y5980121D01*
X102052963Y6081129D01*
X102002614Y6187585D01*
X101962941Y6298463D01*
X101934327Y6412697D01*
X101917047Y6529184D01*
X101911269Y6646805D01*
X101917047Y6764426D01*
X101934327Y6880913D01*
X101962941Y6995147D01*
X102002614Y7106025D01*
X102052963Y7212481D01*
X102113505Y7313489D01*
X102183656Y7408077D01*
X102262741Y7495333D01*
X104384061Y9616653D01*
X104471317Y9695738D01*
X104565905Y9765889D01*
X104666913Y9826431D01*
X104773369Y9876780D01*
X104884247Y9916453D01*
X104998481Y9945067D01*
X105114968Y9962347D01*
X105232589Y9968125D01*
X105350210Y9962347D01*
X105350210Y9962347D01*
G37*
D11*
X104171930Y7707464D03*
D10*
G36*
X107117977Y8194580D02*
X107234464Y8177300D01*
X107348698Y8148686D01*
X107459576Y8109013D01*
X107566032Y8058664D01*
X107667040Y7998122D01*
X107761628Y7927971D01*
X107848884Y7848886D01*
X107848886Y7848884D01*
X107927971Y7761628D01*
X107998122Y7667040D01*
X108058664Y7566032D01*
X108109013Y7459576D01*
X108148686Y7348698D01*
X108177300Y7234464D01*
X108194580Y7117977D01*
X108200358Y7000356D01*
X108194580Y6882735D01*
X108177300Y6766248D01*
X108148686Y6652014D01*
X108109013Y6541136D01*
X108058664Y6434680D01*
X107998122Y6333672D01*
X107927971Y6239084D01*
X107848886Y6151828D01*
X105727566Y4030508D01*
X105640310Y3951423D01*
X105545722Y3881272D01*
X105444714Y3820730D01*
X105338258Y3770381D01*
X105227380Y3730708D01*
X105113146Y3702094D01*
X104996659Y3684814D01*
X104879038Y3679036D01*
X104761417Y3684814D01*
X104644930Y3702094D01*
X104530696Y3730708D01*
X104419818Y3770381D01*
X104313362Y3820730D01*
X104212354Y3881272D01*
X104117766Y3951423D01*
X104030510Y4030508D01*
X104030508Y4030510D01*
X103951423Y4117766D01*
X103881272Y4212354D01*
X103820730Y4313362D01*
X103770381Y4419818D01*
X103730708Y4530696D01*
X103702094Y4644930D01*
X103684814Y4761417D01*
X103679036Y4879038D01*
X103684814Y4996659D01*
X103702094Y5113146D01*
X103730708Y5227380D01*
X103770381Y5338258D01*
X103820730Y5444714D01*
X103881272Y5545722D01*
X103951423Y5640310D01*
X104030508Y5727566D01*
X106151828Y7848886D01*
X106239084Y7927971D01*
X106333672Y7998122D01*
X106434680Y8058664D01*
X106541136Y8109013D01*
X106652014Y8148686D01*
X106766248Y8177300D01*
X106882735Y8194580D01*
X107000356Y8200358D01*
X107117977Y8194580D01*
X107117977Y8194580D01*
G37*
D11*
X105939697Y5939697D03*
D10*
G36*
X108885744Y6426813D02*
X109002231Y6409533D01*
X109116465Y6380919D01*
X109227343Y6341246D01*
X109333799Y6290897D01*
X109434807Y6230355D01*
X109529395Y6160204D01*
X109616651Y6081119D01*
X109616653Y6081117D01*
X109695738Y5993861D01*
X109765889Y5899273D01*
X109826431Y5798265D01*
X109876780Y5691809D01*
X109916453Y5580931D01*
X109945067Y5466697D01*
X109962347Y5350210D01*
X109968125Y5232589D01*
X109962347Y5114968D01*
X109945067Y4998481D01*
X109916453Y4884247D01*
X109876780Y4773369D01*
X109826431Y4666913D01*
X109765889Y4565905D01*
X109695738Y4471317D01*
X109616653Y4384061D01*
X107495333Y2262741D01*
X107408077Y2183656D01*
X107313489Y2113505D01*
X107212481Y2052963D01*
X107106025Y2002614D01*
X106995147Y1962941D01*
X106880913Y1934327D01*
X106764426Y1917047D01*
X106646805Y1911269D01*
X106529184Y1917047D01*
X106412697Y1934327D01*
X106298463Y1962941D01*
X106187585Y2002614D01*
X106081129Y2052963D01*
X105980121Y2113505D01*
X105885533Y2183656D01*
X105798277Y2262741D01*
X105798275Y2262743D01*
X105719190Y2349999D01*
X105649039Y2444587D01*
X105588497Y2545595D01*
X105538148Y2652051D01*
X105498475Y2762929D01*
X105469861Y2877163D01*
X105452581Y2993650D01*
X105446803Y3111271D01*
X105452581Y3228892D01*
X105469861Y3345379D01*
X105498475Y3459613D01*
X105538148Y3570491D01*
X105588497Y3676947D01*
X105649039Y3777955D01*
X105719190Y3872543D01*
X105798275Y3959799D01*
X107919595Y6081119D01*
X108006851Y6160204D01*
X108101439Y6230355D01*
X108202447Y6290897D01*
X108308903Y6341246D01*
X108419781Y6380919D01*
X108534015Y6409533D01*
X108650502Y6426813D01*
X108768123Y6432591D01*
X108885744Y6426813D01*
X108885744Y6426813D01*
G37*
D11*
X107707464Y4171930D03*
D10*
G36*
X97617622Y-5705778D02*
X97734109Y-5723058D01*
X97848343Y-5751672D01*
X97959221Y-5791345D01*
X98065677Y-5841694D01*
X98166685Y-5902236D01*
X98261273Y-5972387D01*
X98348529Y-6051472D01*
X98427614Y-6138728D01*
X98497765Y-6233316D01*
X98558307Y-6334324D01*
X98608656Y-6440780D01*
X98648329Y-6551658D01*
X98676943Y-6665892D01*
X98694223Y-6782379D01*
X98700001Y-6900000D01*
X98700001Y-9900000D01*
X98694223Y-10017621D01*
X98676943Y-10134108D01*
X98648329Y-10248342D01*
X98608656Y-10359220D01*
X98558307Y-10465676D01*
X98497765Y-10566684D01*
X98427614Y-10661272D01*
X98348529Y-10748528D01*
X98261273Y-10827613D01*
X98166685Y-10897764D01*
X98065677Y-10958306D01*
X97959221Y-11008655D01*
X97848343Y-11048328D01*
X97734109Y-11076942D01*
X97617622Y-11094222D01*
X97500001Y-11100000D01*
X97499999Y-11100000D01*
X97382378Y-11094222D01*
X97265891Y-11076942D01*
X97151657Y-11048328D01*
X97040779Y-11008655D01*
X96934323Y-10958306D01*
X96833315Y-10897764D01*
X96738727Y-10827613D01*
X96651471Y-10748528D01*
X96572386Y-10661272D01*
X96502235Y-10566684D01*
X96441693Y-10465676D01*
X96391344Y-10359220D01*
X96351671Y-10248342D01*
X96323057Y-10134108D01*
X96305777Y-10017621D01*
X96299999Y-9900000D01*
X96299999Y-6900000D01*
X96305777Y-6782379D01*
X96323057Y-6665892D01*
X96351671Y-6551658D01*
X96391344Y-6440780D01*
X96441693Y-6334324D01*
X96502235Y-6233316D01*
X96572386Y-6138728D01*
X96651471Y-6051472D01*
X96738727Y-5972387D01*
X96833315Y-5902236D01*
X96934323Y-5841694D01*
X97040779Y-5791345D01*
X97151657Y-5751672D01*
X97265891Y-5723058D01*
X97382378Y-5705778D01*
X97499999Y-5700000D01*
X97500001Y-5700000D01*
X97617622Y-5705778D01*
X97617622Y-5705778D01*
G37*
D11*
X97500000Y-8400000D03*
D10*
G36*
X100117622Y-5705778D02*
X100234109Y-5723058D01*
X100348343Y-5751672D01*
X100459221Y-5791345D01*
X100565677Y-5841694D01*
X100666685Y-5902236D01*
X100761273Y-5972387D01*
X100848529Y-6051472D01*
X100927614Y-6138728D01*
X100997765Y-6233316D01*
X101058307Y-6334324D01*
X101108656Y-6440780D01*
X101148329Y-6551658D01*
X101176943Y-6665892D01*
X101194223Y-6782379D01*
X101200001Y-6900000D01*
X101200001Y-9900000D01*
X101194223Y-10017621D01*
X101176943Y-10134108D01*
X101148329Y-10248342D01*
X101108656Y-10359220D01*
X101058307Y-10465676D01*
X100997765Y-10566684D01*
X100927614Y-10661272D01*
X100848529Y-10748528D01*
X100761273Y-10827613D01*
X100666685Y-10897764D01*
X100565677Y-10958306D01*
X100459221Y-11008655D01*
X100348343Y-11048328D01*
X100234109Y-11076942D01*
X100117622Y-11094222D01*
X100000001Y-11100000D01*
X99999999Y-11100000D01*
X99882378Y-11094222D01*
X99765891Y-11076942D01*
X99651657Y-11048328D01*
X99540779Y-11008655D01*
X99434323Y-10958306D01*
X99333315Y-10897764D01*
X99238727Y-10827613D01*
X99151471Y-10748528D01*
X99072386Y-10661272D01*
X99002235Y-10566684D01*
X98941693Y-10465676D01*
X98891344Y-10359220D01*
X98851671Y-10248342D01*
X98823057Y-10134108D01*
X98805777Y-10017621D01*
X98799999Y-9900000D01*
X98799999Y-6900000D01*
X98805777Y-6782379D01*
X98823057Y-6665892D01*
X98851671Y-6551658D01*
X98891344Y-6440780D01*
X98941693Y-6334324D01*
X99002235Y-6233316D01*
X99072386Y-6138728D01*
X99151471Y-6051472D01*
X99238727Y-5972387D01*
X99333315Y-5902236D01*
X99434323Y-5841694D01*
X99540779Y-5791345D01*
X99651657Y-5751672D01*
X99765891Y-5723058D01*
X99882378Y-5705778D01*
X99999999Y-5700000D01*
X100000001Y-5700000D01*
X100117622Y-5705778D01*
X100117622Y-5705778D01*
G37*
D11*
X100000000Y-8400000D03*
D10*
G36*
X102617622Y-5705778D02*
X102734109Y-5723058D01*
X102848343Y-5751672D01*
X102959221Y-5791345D01*
X103065677Y-5841694D01*
X103166685Y-5902236D01*
X103261273Y-5972387D01*
X103348529Y-6051472D01*
X103427614Y-6138728D01*
X103497765Y-6233316D01*
X103558307Y-6334324D01*
X103608656Y-6440780D01*
X103648329Y-6551658D01*
X103676943Y-6665892D01*
X103694223Y-6782379D01*
X103700001Y-6900000D01*
X103700001Y-9900000D01*
X103694223Y-10017621D01*
X103676943Y-10134108D01*
X103648329Y-10248342D01*
X103608656Y-10359220D01*
X103558307Y-10465676D01*
X103497765Y-10566684D01*
X103427614Y-10661272D01*
X103348529Y-10748528D01*
X103261273Y-10827613D01*
X103166685Y-10897764D01*
X103065677Y-10958306D01*
X102959221Y-11008655D01*
X102848343Y-11048328D01*
X102734109Y-11076942D01*
X102617622Y-11094222D01*
X102500001Y-11100000D01*
X102499999Y-11100000D01*
X102382378Y-11094222D01*
X102265891Y-11076942D01*
X102151657Y-11048328D01*
X102040779Y-11008655D01*
X101934323Y-10958306D01*
X101833315Y-10897764D01*
X101738727Y-10827613D01*
X101651471Y-10748528D01*
X101572386Y-10661272D01*
X101502235Y-10566684D01*
X101441693Y-10465676D01*
X101391344Y-10359220D01*
X101351671Y-10248342D01*
X101323057Y-10134108D01*
X101305777Y-10017621D01*
X101299999Y-9900000D01*
X101299999Y-6900000D01*
X101305777Y-6782379D01*
X101323057Y-6665892D01*
X101351671Y-6551658D01*
X101391344Y-6440780D01*
X101441693Y-6334324D01*
X101502235Y-6233316D01*
X101572386Y-6138728D01*
X101651471Y-6051472D01*
X101738727Y-5972387D01*
X101833315Y-5902236D01*
X101934323Y-5841694D01*
X102040779Y-5791345D01*
X102151657Y-5751672D01*
X102265891Y-5723058D01*
X102382378Y-5705778D01*
X102499999Y-5700000D01*
X102500001Y-5700000D01*
X102617622Y-5705778D01*
X102617622Y-5705778D01*
G37*
D11*
X102500000Y-8400000D03*
M02*
