G04 #@! TF.GenerationSoftware,KiCad,Pcbnew,(2017-05-31 revision c0bb8a30c)-makepkg*
G04 #@! TF.CreationDate,2017-07-13T16:13:42-05:00*
G04 #@! TF.ProjectId,45 Neo,3435204E656F2E6B696361645F706362,rev?*
G04 #@! TF.FileFunction,Copper,L2,Bot,Signal*
G04 #@! TF.FilePolarity,Positive*
%FSLAX46Y46*%
G04 Gerber Fmt 4.6, Leading zero omitted, Abs format (unit mm)*
G04 Created by KiCad (PCBNEW (2017-05-31 revision c0bb8a30c)-makepkg) date 07/13/17 16:13:42*
%MOMM*%
%LPD*%
G01*
G04 APERTURE LIST*
%ADD10C,0.100000*%
%ADD11C,0.600000*%
%ADD12C,2.000000*%
%ADD13C,0.254000*%
G04 APERTURE END LIST*
D10*
D11*
X160000000Y-8500000D03*
X160000000Y-7500000D03*
X160000000Y-1500000D03*
X160000000Y-2500000D03*
X164800000Y-5000000D03*
X155000000Y-14800000D03*
X158500000Y-10000000D03*
X162000000Y-5000000D03*
D10*
G36*
X164998017Y-6504814D02*
X165095090Y-6519214D01*
X165190285Y-6543059D01*
X165282683Y-6576119D01*
X165371397Y-6618078D01*
X165455570Y-6668529D01*
X165534393Y-6726989D01*
X165607107Y-6792892D01*
X165673010Y-6865606D01*
X165731470Y-6944429D01*
X165781921Y-7028602D01*
X165823880Y-7117316D01*
X165856940Y-7209714D01*
X165880785Y-7304909D01*
X165895185Y-7401982D01*
X165900000Y-7499999D01*
X165900000Y-7500001D01*
X165895185Y-7598018D01*
X165880785Y-7695091D01*
X165856940Y-7790286D01*
X165823880Y-7882684D01*
X165781921Y-7971398D01*
X165731470Y-8055571D01*
X165673010Y-8134394D01*
X165607107Y-8207108D01*
X165534393Y-8273011D01*
X165455570Y-8331471D01*
X165371397Y-8381922D01*
X165282683Y-8423881D01*
X165190285Y-8456941D01*
X165095090Y-8480786D01*
X164998017Y-8495186D01*
X164900000Y-8500001D01*
X161900000Y-8500001D01*
X161801983Y-8495186D01*
X161704910Y-8480786D01*
X161609715Y-8456941D01*
X161517317Y-8423881D01*
X161428603Y-8381922D01*
X161344430Y-8331471D01*
X161265607Y-8273011D01*
X161192893Y-8207108D01*
X161126990Y-8134394D01*
X161068530Y-8055571D01*
X161018079Y-7971398D01*
X160976120Y-7882684D01*
X160943060Y-7790286D01*
X160919215Y-7695091D01*
X160904815Y-7598018D01*
X160900000Y-7500001D01*
X160900000Y-7499999D01*
X160904815Y-7401982D01*
X160919215Y-7304909D01*
X160943060Y-7209714D01*
X160976120Y-7117316D01*
X161018079Y-7028602D01*
X161068530Y-6944429D01*
X161126990Y-6865606D01*
X161192893Y-6792892D01*
X161265607Y-6726989D01*
X161344430Y-6668529D01*
X161428603Y-6618078D01*
X161517317Y-6576119D01*
X161609715Y-6543059D01*
X161704910Y-6519214D01*
X161801983Y-6504814D01*
X161900000Y-6499999D01*
X164900000Y-6499999D01*
X164998017Y-6504814D01*
X164998017Y-6504814D01*
G37*
D12*
X163400000Y-7500000D03*
D10*
G36*
X164998017Y-4004814D02*
X165095090Y-4019214D01*
X165190285Y-4043059D01*
X165282683Y-4076119D01*
X165371397Y-4118078D01*
X165455570Y-4168529D01*
X165534393Y-4226989D01*
X165607107Y-4292892D01*
X165673010Y-4365606D01*
X165731470Y-4444429D01*
X165781921Y-4528602D01*
X165823880Y-4617316D01*
X165856940Y-4709714D01*
X165880785Y-4804909D01*
X165895185Y-4901982D01*
X165900000Y-4999999D01*
X165900000Y-5000001D01*
X165895185Y-5098018D01*
X165880785Y-5195091D01*
X165856940Y-5290286D01*
X165823880Y-5382684D01*
X165781921Y-5471398D01*
X165731470Y-5555571D01*
X165673010Y-5634394D01*
X165607107Y-5707108D01*
X165534393Y-5773011D01*
X165455570Y-5831471D01*
X165371397Y-5881922D01*
X165282683Y-5923881D01*
X165190285Y-5956941D01*
X165095090Y-5980786D01*
X164998017Y-5995186D01*
X164900000Y-6000001D01*
X161900000Y-6000001D01*
X161801983Y-5995186D01*
X161704910Y-5980786D01*
X161609715Y-5956941D01*
X161517317Y-5923881D01*
X161428603Y-5881922D01*
X161344430Y-5831471D01*
X161265607Y-5773011D01*
X161192893Y-5707108D01*
X161126990Y-5634394D01*
X161068530Y-5555571D01*
X161018079Y-5471398D01*
X160976120Y-5382684D01*
X160943060Y-5290286D01*
X160919215Y-5195091D01*
X160904815Y-5098018D01*
X160900000Y-5000001D01*
X160900000Y-4999999D01*
X160904815Y-4901982D01*
X160919215Y-4804909D01*
X160943060Y-4709714D01*
X160976120Y-4617316D01*
X161018079Y-4528602D01*
X161068530Y-4444429D01*
X161126990Y-4365606D01*
X161192893Y-4292892D01*
X161265607Y-4226989D01*
X161344430Y-4168529D01*
X161428603Y-4118078D01*
X161517317Y-4076119D01*
X161609715Y-4043059D01*
X161704910Y-4019214D01*
X161801983Y-4004814D01*
X161900000Y-3999999D01*
X164900000Y-3999999D01*
X164998017Y-4004814D01*
X164998017Y-4004814D01*
G37*
D12*
X163400000Y-5000000D03*
D10*
G36*
X164998017Y-1504814D02*
X165095090Y-1519214D01*
X165190285Y-1543059D01*
X165282683Y-1576119D01*
X165371397Y-1618078D01*
X165455570Y-1668529D01*
X165534393Y-1726989D01*
X165607107Y-1792892D01*
X165673010Y-1865606D01*
X165731470Y-1944429D01*
X165781921Y-2028602D01*
X165823880Y-2117316D01*
X165856940Y-2209714D01*
X165880785Y-2304909D01*
X165895185Y-2401982D01*
X165900000Y-2499999D01*
X165900000Y-2500001D01*
X165895185Y-2598018D01*
X165880785Y-2695091D01*
X165856940Y-2790286D01*
X165823880Y-2882684D01*
X165781921Y-2971398D01*
X165731470Y-3055571D01*
X165673010Y-3134394D01*
X165607107Y-3207108D01*
X165534393Y-3273011D01*
X165455570Y-3331471D01*
X165371397Y-3381922D01*
X165282683Y-3423881D01*
X165190285Y-3456941D01*
X165095090Y-3480786D01*
X164998017Y-3495186D01*
X164900000Y-3500001D01*
X161900000Y-3500001D01*
X161801983Y-3495186D01*
X161704910Y-3480786D01*
X161609715Y-3456941D01*
X161517317Y-3423881D01*
X161428603Y-3381922D01*
X161344430Y-3331471D01*
X161265607Y-3273011D01*
X161192893Y-3207108D01*
X161126990Y-3134394D01*
X161068530Y-3055571D01*
X161018079Y-2971398D01*
X160976120Y-2882684D01*
X160943060Y-2790286D01*
X160919215Y-2695091D01*
X160904815Y-2598018D01*
X160900000Y-2500001D01*
X160900000Y-2499999D01*
X160904815Y-2401982D01*
X160919215Y-2304909D01*
X160943060Y-2209714D01*
X160976120Y-2117316D01*
X161018079Y-2028602D01*
X161068530Y-1944429D01*
X161126990Y-1865606D01*
X161192893Y-1792892D01*
X161265607Y-1726989D01*
X161344430Y-1668529D01*
X161428603Y-1618078D01*
X161517317Y-1576119D01*
X161609715Y-1543059D01*
X161704910Y-1519214D01*
X161801983Y-1504814D01*
X161900000Y-1499999D01*
X164900000Y-1499999D01*
X164998017Y-1504814D01*
X164998017Y-1504814D01*
G37*
D12*
X163400000Y-2500000D03*
D10*
G36*
X157598018Y-10904815D02*
X157695091Y-10919215D01*
X157790286Y-10943060D01*
X157882684Y-10976120D01*
X157971398Y-11018079D01*
X158055571Y-11068530D01*
X158134394Y-11126990D01*
X158207108Y-11192893D01*
X158273011Y-11265607D01*
X158331471Y-11344430D01*
X158381922Y-11428603D01*
X158423881Y-11517317D01*
X158456941Y-11609715D01*
X158480786Y-11704910D01*
X158495186Y-11801983D01*
X158500001Y-11900000D01*
X158500001Y-14900000D01*
X158495186Y-14998017D01*
X158480786Y-15095090D01*
X158456941Y-15190285D01*
X158423881Y-15282683D01*
X158381922Y-15371397D01*
X158331471Y-15455570D01*
X158273011Y-15534393D01*
X158207108Y-15607107D01*
X158134394Y-15673010D01*
X158055571Y-15731470D01*
X157971398Y-15781921D01*
X157882684Y-15823880D01*
X157790286Y-15856940D01*
X157695091Y-15880785D01*
X157598018Y-15895185D01*
X157500001Y-15900000D01*
X157499999Y-15900000D01*
X157401982Y-15895185D01*
X157304909Y-15880785D01*
X157209714Y-15856940D01*
X157117316Y-15823880D01*
X157028602Y-15781921D01*
X156944429Y-15731470D01*
X156865606Y-15673010D01*
X156792892Y-15607107D01*
X156726989Y-15534393D01*
X156668529Y-15455570D01*
X156618078Y-15371397D01*
X156576119Y-15282683D01*
X156543059Y-15190285D01*
X156519214Y-15095090D01*
X156504814Y-14998017D01*
X156499999Y-14900000D01*
X156499999Y-11900000D01*
X156504814Y-11801983D01*
X156519214Y-11704910D01*
X156543059Y-11609715D01*
X156576119Y-11517317D01*
X156618078Y-11428603D01*
X156668529Y-11344430D01*
X156726989Y-11265607D01*
X156792892Y-11192893D01*
X156865606Y-11126990D01*
X156944429Y-11068530D01*
X157028602Y-11018079D01*
X157117316Y-10976120D01*
X157209714Y-10943060D01*
X157304909Y-10919215D01*
X157401982Y-10904815D01*
X157499999Y-10900000D01*
X157500001Y-10900000D01*
X157598018Y-10904815D01*
X157598018Y-10904815D01*
G37*
D12*
X157500000Y-13400000D03*
D10*
G36*
X155098018Y-10904815D02*
X155195091Y-10919215D01*
X155290286Y-10943060D01*
X155382684Y-10976120D01*
X155471398Y-11018079D01*
X155555571Y-11068530D01*
X155634394Y-11126990D01*
X155707108Y-11192893D01*
X155773011Y-11265607D01*
X155831471Y-11344430D01*
X155881922Y-11428603D01*
X155923881Y-11517317D01*
X155956941Y-11609715D01*
X155980786Y-11704910D01*
X155995186Y-11801983D01*
X156000001Y-11900000D01*
X156000001Y-14900000D01*
X155995186Y-14998017D01*
X155980786Y-15095090D01*
X155956941Y-15190285D01*
X155923881Y-15282683D01*
X155881922Y-15371397D01*
X155831471Y-15455570D01*
X155773011Y-15534393D01*
X155707108Y-15607107D01*
X155634394Y-15673010D01*
X155555571Y-15731470D01*
X155471398Y-15781921D01*
X155382684Y-15823880D01*
X155290286Y-15856940D01*
X155195091Y-15880785D01*
X155098018Y-15895185D01*
X155000001Y-15900000D01*
X154999999Y-15900000D01*
X154901982Y-15895185D01*
X154804909Y-15880785D01*
X154709714Y-15856940D01*
X154617316Y-15823880D01*
X154528602Y-15781921D01*
X154444429Y-15731470D01*
X154365606Y-15673010D01*
X154292892Y-15607107D01*
X154226989Y-15534393D01*
X154168529Y-15455570D01*
X154118078Y-15371397D01*
X154076119Y-15282683D01*
X154043059Y-15190285D01*
X154019214Y-15095090D01*
X154004814Y-14998017D01*
X153999999Y-14900000D01*
X153999999Y-11900000D01*
X154004814Y-11801983D01*
X154019214Y-11704910D01*
X154043059Y-11609715D01*
X154076119Y-11517317D01*
X154118078Y-11428603D01*
X154168529Y-11344430D01*
X154226989Y-11265607D01*
X154292892Y-11192893D01*
X154365606Y-11126990D01*
X154444429Y-11068530D01*
X154528602Y-11018079D01*
X154617316Y-10976120D01*
X154709714Y-10943060D01*
X154804909Y-10919215D01*
X154901982Y-10904815D01*
X154999999Y-10900000D01*
X155000001Y-10900000D01*
X155098018Y-10904815D01*
X155098018Y-10904815D01*
G37*
D12*
X155000000Y-13400000D03*
D10*
G36*
X152598018Y-10904815D02*
X152695091Y-10919215D01*
X152790286Y-10943060D01*
X152882684Y-10976120D01*
X152971398Y-11018079D01*
X153055571Y-11068530D01*
X153134394Y-11126990D01*
X153207108Y-11192893D01*
X153273011Y-11265607D01*
X153331471Y-11344430D01*
X153381922Y-11428603D01*
X153423881Y-11517317D01*
X153456941Y-11609715D01*
X153480786Y-11704910D01*
X153495186Y-11801983D01*
X153500001Y-11900000D01*
X153500001Y-14900000D01*
X153495186Y-14998017D01*
X153480786Y-15095090D01*
X153456941Y-15190285D01*
X153423881Y-15282683D01*
X153381922Y-15371397D01*
X153331471Y-15455570D01*
X153273011Y-15534393D01*
X153207108Y-15607107D01*
X153134394Y-15673010D01*
X153055571Y-15731470D01*
X152971398Y-15781921D01*
X152882684Y-15823880D01*
X152790286Y-15856940D01*
X152695091Y-15880785D01*
X152598018Y-15895185D01*
X152500001Y-15900000D01*
X152499999Y-15900000D01*
X152401982Y-15895185D01*
X152304909Y-15880785D01*
X152209714Y-15856940D01*
X152117316Y-15823880D01*
X152028602Y-15781921D01*
X151944429Y-15731470D01*
X151865606Y-15673010D01*
X151792892Y-15607107D01*
X151726989Y-15534393D01*
X151668529Y-15455570D01*
X151618078Y-15371397D01*
X151576119Y-15282683D01*
X151543059Y-15190285D01*
X151519214Y-15095090D01*
X151504814Y-14998017D01*
X151499999Y-14900000D01*
X151499999Y-11900000D01*
X151504814Y-11801983D01*
X151519214Y-11704910D01*
X151543059Y-11609715D01*
X151576119Y-11517317D01*
X151618078Y-11428603D01*
X151668529Y-11344430D01*
X151726989Y-11265607D01*
X151792892Y-11192893D01*
X151865606Y-11126990D01*
X151944429Y-11068530D01*
X152028602Y-11018079D01*
X152117316Y-10976120D01*
X152209714Y-10943060D01*
X152304909Y-10919215D01*
X152401982Y-10904815D01*
X152499999Y-10900000D01*
X152500001Y-10900000D01*
X152598018Y-10904815D01*
X152598018Y-10904815D01*
G37*
D12*
X152500000Y-13400000D03*
D11*
X152500000Y-10000000D03*
X155000000Y-12000000D03*
X151500000Y-10000000D03*
X157500000Y-10000000D03*
D13*
G36*
X162665000Y-3361927D02*
X161900000Y-3361927D01*
X161580428Y-3393402D01*
X161509229Y-3415000D01*
X160746774Y-3415000D01*
X160570042Y-3440089D01*
X160350093Y-3554148D01*
X159100093Y-4554148D01*
X159000922Y-4653319D01*
X158991112Y-4672237D01*
X154800000Y-4672237D01*
X154775224Y-4674677D01*
X154751399Y-4681904D01*
X154729443Y-4693640D01*
X154710197Y-4709434D01*
X154694403Y-4728680D01*
X154682667Y-4750636D01*
X154675440Y-4774461D01*
X154673000Y-4799237D01*
X154673000Y-8961182D01*
X154504148Y-9103319D01*
X153504148Y-10353319D01*
X153413336Y-10506996D01*
X153365000Y-10750000D01*
X153365000Y-11868799D01*
X153361927Y-11900000D01*
X153361927Y-12665000D01*
X150735000Y-12665000D01*
X150735000Y-735000D01*
X162665000Y-735000D01*
X162665000Y-3361927D01*
X162665000Y-3361927D01*
G37*
X162665000Y-3361927D02*
X161900000Y-3361927D01*
X161580428Y-3393402D01*
X161509229Y-3415000D01*
X160746774Y-3415000D01*
X160570042Y-3440089D01*
X160350093Y-3554148D01*
X159100093Y-4554148D01*
X159000922Y-4653319D01*
X158991112Y-4672237D01*
X154800000Y-4672237D01*
X154775224Y-4674677D01*
X154751399Y-4681904D01*
X154729443Y-4693640D01*
X154710197Y-4709434D01*
X154694403Y-4728680D01*
X154682667Y-4750636D01*
X154675440Y-4774461D01*
X154673000Y-4799237D01*
X154673000Y-8961182D01*
X154504148Y-9103319D01*
X153504148Y-10353319D01*
X153413336Y-10506996D01*
X153365000Y-10750000D01*
X153365000Y-11868799D01*
X153361927Y-11900000D01*
X153361927Y-12665000D01*
X150735000Y-12665000D01*
X150735000Y-735000D01*
X162665000Y-735000D01*
X162665000Y-3361927D01*
G36*
X158940534Y-5356304D02*
X159100093Y-5545852D01*
X160350093Y-6545852D01*
X160503770Y-6636664D01*
X160746774Y-6685000D01*
X162665000Y-6685000D01*
X162665000Y-9265000D01*
X160000000Y-9265000D01*
X159931148Y-9271751D01*
X159862275Y-9278019D01*
X159859803Y-9278746D01*
X159857238Y-9278998D01*
X159791025Y-9298989D01*
X159724664Y-9318520D01*
X159722379Y-9319714D01*
X159719913Y-9320459D01*
X159658862Y-9352920D01*
X159597541Y-9384978D01*
X159595532Y-9386594D01*
X159593257Y-9387803D01*
X159539685Y-9431496D01*
X159485747Y-9474863D01*
X159484089Y-9476839D01*
X159482094Y-9478466D01*
X159438000Y-9531766D01*
X159393542Y-9584749D01*
X159392302Y-9587005D01*
X159390657Y-9588993D01*
X159357726Y-9649898D01*
X159324436Y-9710453D01*
X159323657Y-9712908D01*
X159322431Y-9715176D01*
X159301961Y-9781303D01*
X159281062Y-9847185D01*
X159280775Y-9849743D01*
X159280012Y-9852208D01*
X159272775Y-9921065D01*
X159265072Y-9989738D01*
X159265037Y-9994685D01*
X159265018Y-9994869D01*
X159265035Y-9995053D01*
X159265000Y-10000000D01*
X159265000Y-12665000D01*
X156638073Y-12665000D01*
X156638073Y-11900000D01*
X156635000Y-11868799D01*
X156635000Y-10750000D01*
X156609911Y-10573268D01*
X156495852Y-10353319D01*
X155495852Y-9103319D01*
X155396681Y-9004148D01*
X155327000Y-8968014D01*
X155327000Y-5327000D01*
X158931244Y-5327000D01*
X158940534Y-5356304D01*
X158940534Y-5356304D01*
G37*
X158940534Y-5356304D02*
X159100093Y-5545852D01*
X160350093Y-6545852D01*
X160503770Y-6636664D01*
X160746774Y-6685000D01*
X162665000Y-6685000D01*
X162665000Y-9265000D01*
X160000000Y-9265000D01*
X159931148Y-9271751D01*
X159862275Y-9278019D01*
X159859803Y-9278746D01*
X159857238Y-9278998D01*
X159791025Y-9298989D01*
X159724664Y-9318520D01*
X159722379Y-9319714D01*
X159719913Y-9320459D01*
X159658862Y-9352920D01*
X159597541Y-9384978D01*
X159595532Y-9386594D01*
X159593257Y-9387803D01*
X159539685Y-9431496D01*
X159485747Y-9474863D01*
X159484089Y-9476839D01*
X159482094Y-9478466D01*
X159438000Y-9531766D01*
X159393542Y-9584749D01*
X159392302Y-9587005D01*
X159390657Y-9588993D01*
X159357726Y-9649898D01*
X159324436Y-9710453D01*
X159323657Y-9712908D01*
X159322431Y-9715176D01*
X159301961Y-9781303D01*
X159281062Y-9847185D01*
X159280775Y-9849743D01*
X159280012Y-9852208D01*
X159272775Y-9921065D01*
X159265072Y-9989738D01*
X159265037Y-9994685D01*
X159265018Y-9994869D01*
X159265035Y-9995053D01*
X159265000Y-10000000D01*
X159265000Y-12665000D01*
X156638073Y-12665000D01*
X156638073Y-11900000D01*
X156635000Y-11868799D01*
X156635000Y-10750000D01*
X156609911Y-10573268D01*
X156495852Y-10353319D01*
X155495852Y-9103319D01*
X155396681Y-9004148D01*
X155327000Y-8968014D01*
X155327000Y-5327000D01*
X158931244Y-5327000D01*
X158940534Y-5356304D01*
G36*
X155873000Y-10794549D02*
X155873000Y-11787574D01*
X155861927Y-11900000D01*
X155861927Y-12665000D01*
X154138073Y-12665000D01*
X154138073Y-11900000D01*
X154127000Y-11787574D01*
X154127000Y-10794549D01*
X155000000Y-9703299D01*
X155873000Y-10794549D01*
X155873000Y-10794549D01*
G37*
X155873000Y-10794549D02*
X155873000Y-11787574D01*
X155861927Y-11900000D01*
X155861927Y-12665000D01*
X154138073Y-12665000D01*
X154138073Y-11900000D01*
X154127000Y-11787574D01*
X154127000Y-10794549D01*
X155000000Y-9703299D01*
X155873000Y-10794549D01*
G36*
X162665000Y-5861927D02*
X161900000Y-5861927D01*
X161580428Y-5893402D01*
X161482857Y-5923000D01*
X160791322Y-5923000D01*
X159700073Y-5050000D01*
X160791323Y-4177000D01*
X162665000Y-4177000D01*
X162665000Y-5861927D01*
X162665000Y-5861927D01*
G37*
X162665000Y-5861927D02*
X161900000Y-5861927D01*
X161580428Y-5893402D01*
X161482857Y-5923000D01*
X160791322Y-5923000D01*
X159700073Y-5050000D01*
X160791323Y-4177000D01*
X162665000Y-4177000D01*
X162665000Y-5861927D01*
M02*
