G04 #@! TF.GenerationSoftware,KiCad,Pcbnew,(2017-05-31 revision c0bb8a30c)-makepkg*
G04 #@! TF.CreationDate,2017-07-13T16:13:06-05:00*
G04 #@! TF.ProjectId,45 Neo,3435204E656F2E6B696361645F706362,rev?*
G04 #@! TF.FileFunction,Copper,L2,Bot,Signal*
G04 #@! TF.FilePolarity,Positive*
%FSLAX46Y46*%
G04 Gerber Fmt 4.6, Leading zero omitted, Abs format (unit mm)*
G04 Created by KiCad (PCBNEW (2017-05-31 revision c0bb8a30c)-makepkg) date 07/13/17 16:13:06*
%MOMM*%
%LPD*%
G01*
G04 APERTURE LIST*
%ADD10C,0.100000*%
%ADD11C,0.600000*%
%ADD12C,2.000000*%
%ADD13C,0.254000*%
G04 APERTURE END LIST*
D10*
D11*
X60000000Y-8500000D03*
X60000000Y-7500000D03*
X60000000Y-1500000D03*
X60000000Y-2500000D03*
X64800000Y-5000000D03*
X55000000Y-14800000D03*
X58500000Y-10000000D03*
X51500000Y-10000000D03*
X62000000Y-5000000D03*
X55000000Y-12000000D03*
X57500000Y-10000000D03*
X52500000Y-10000000D03*
D10*
G36*
X64998017Y-6504814D02*
X65095090Y-6519214D01*
X65190285Y-6543059D01*
X65282683Y-6576119D01*
X65371397Y-6618078D01*
X65455570Y-6668529D01*
X65534393Y-6726989D01*
X65607107Y-6792892D01*
X65673010Y-6865606D01*
X65731470Y-6944429D01*
X65781921Y-7028602D01*
X65823880Y-7117316D01*
X65856940Y-7209714D01*
X65880785Y-7304909D01*
X65895185Y-7401982D01*
X65900000Y-7499999D01*
X65900000Y-7500001D01*
X65895185Y-7598018D01*
X65880785Y-7695091D01*
X65856940Y-7790286D01*
X65823880Y-7882684D01*
X65781921Y-7971398D01*
X65731470Y-8055571D01*
X65673010Y-8134394D01*
X65607107Y-8207108D01*
X65534393Y-8273011D01*
X65455570Y-8331471D01*
X65371397Y-8381922D01*
X65282683Y-8423881D01*
X65190285Y-8456941D01*
X65095090Y-8480786D01*
X64998017Y-8495186D01*
X64900000Y-8500001D01*
X61900000Y-8500001D01*
X61801983Y-8495186D01*
X61704910Y-8480786D01*
X61609715Y-8456941D01*
X61517317Y-8423881D01*
X61428603Y-8381922D01*
X61344430Y-8331471D01*
X61265607Y-8273011D01*
X61192893Y-8207108D01*
X61126990Y-8134394D01*
X61068530Y-8055571D01*
X61018079Y-7971398D01*
X60976120Y-7882684D01*
X60943060Y-7790286D01*
X60919215Y-7695091D01*
X60904815Y-7598018D01*
X60900000Y-7500001D01*
X60900000Y-7499999D01*
X60904815Y-7401982D01*
X60919215Y-7304909D01*
X60943060Y-7209714D01*
X60976120Y-7117316D01*
X61018079Y-7028602D01*
X61068530Y-6944429D01*
X61126990Y-6865606D01*
X61192893Y-6792892D01*
X61265607Y-6726989D01*
X61344430Y-6668529D01*
X61428603Y-6618078D01*
X61517317Y-6576119D01*
X61609715Y-6543059D01*
X61704910Y-6519214D01*
X61801983Y-6504814D01*
X61900000Y-6499999D01*
X64900000Y-6499999D01*
X64998017Y-6504814D01*
X64998017Y-6504814D01*
G37*
D12*
X63400000Y-7500000D03*
D10*
G36*
X64998017Y-4004814D02*
X65095090Y-4019214D01*
X65190285Y-4043059D01*
X65282683Y-4076119D01*
X65371397Y-4118078D01*
X65455570Y-4168529D01*
X65534393Y-4226989D01*
X65607107Y-4292892D01*
X65673010Y-4365606D01*
X65731470Y-4444429D01*
X65781921Y-4528602D01*
X65823880Y-4617316D01*
X65856940Y-4709714D01*
X65880785Y-4804909D01*
X65895185Y-4901982D01*
X65900000Y-4999999D01*
X65900000Y-5000001D01*
X65895185Y-5098018D01*
X65880785Y-5195091D01*
X65856940Y-5290286D01*
X65823880Y-5382684D01*
X65781921Y-5471398D01*
X65731470Y-5555571D01*
X65673010Y-5634394D01*
X65607107Y-5707108D01*
X65534393Y-5773011D01*
X65455570Y-5831471D01*
X65371397Y-5881922D01*
X65282683Y-5923881D01*
X65190285Y-5956941D01*
X65095090Y-5980786D01*
X64998017Y-5995186D01*
X64900000Y-6000001D01*
X61900000Y-6000001D01*
X61801983Y-5995186D01*
X61704910Y-5980786D01*
X61609715Y-5956941D01*
X61517317Y-5923881D01*
X61428603Y-5881922D01*
X61344430Y-5831471D01*
X61265607Y-5773011D01*
X61192893Y-5707108D01*
X61126990Y-5634394D01*
X61068530Y-5555571D01*
X61018079Y-5471398D01*
X60976120Y-5382684D01*
X60943060Y-5290286D01*
X60919215Y-5195091D01*
X60904815Y-5098018D01*
X60900000Y-5000001D01*
X60900000Y-4999999D01*
X60904815Y-4901982D01*
X60919215Y-4804909D01*
X60943060Y-4709714D01*
X60976120Y-4617316D01*
X61018079Y-4528602D01*
X61068530Y-4444429D01*
X61126990Y-4365606D01*
X61192893Y-4292892D01*
X61265607Y-4226989D01*
X61344430Y-4168529D01*
X61428603Y-4118078D01*
X61517317Y-4076119D01*
X61609715Y-4043059D01*
X61704910Y-4019214D01*
X61801983Y-4004814D01*
X61900000Y-3999999D01*
X64900000Y-3999999D01*
X64998017Y-4004814D01*
X64998017Y-4004814D01*
G37*
D12*
X63400000Y-5000000D03*
D10*
G36*
X64998017Y-1504814D02*
X65095090Y-1519214D01*
X65190285Y-1543059D01*
X65282683Y-1576119D01*
X65371397Y-1618078D01*
X65455570Y-1668529D01*
X65534393Y-1726989D01*
X65607107Y-1792892D01*
X65673010Y-1865606D01*
X65731470Y-1944429D01*
X65781921Y-2028602D01*
X65823880Y-2117316D01*
X65856940Y-2209714D01*
X65880785Y-2304909D01*
X65895185Y-2401982D01*
X65900000Y-2499999D01*
X65900000Y-2500001D01*
X65895185Y-2598018D01*
X65880785Y-2695091D01*
X65856940Y-2790286D01*
X65823880Y-2882684D01*
X65781921Y-2971398D01*
X65731470Y-3055571D01*
X65673010Y-3134394D01*
X65607107Y-3207108D01*
X65534393Y-3273011D01*
X65455570Y-3331471D01*
X65371397Y-3381922D01*
X65282683Y-3423881D01*
X65190285Y-3456941D01*
X65095090Y-3480786D01*
X64998017Y-3495186D01*
X64900000Y-3500001D01*
X61900000Y-3500001D01*
X61801983Y-3495186D01*
X61704910Y-3480786D01*
X61609715Y-3456941D01*
X61517317Y-3423881D01*
X61428603Y-3381922D01*
X61344430Y-3331471D01*
X61265607Y-3273011D01*
X61192893Y-3207108D01*
X61126990Y-3134394D01*
X61068530Y-3055571D01*
X61018079Y-2971398D01*
X60976120Y-2882684D01*
X60943060Y-2790286D01*
X60919215Y-2695091D01*
X60904815Y-2598018D01*
X60900000Y-2500001D01*
X60900000Y-2499999D01*
X60904815Y-2401982D01*
X60919215Y-2304909D01*
X60943060Y-2209714D01*
X60976120Y-2117316D01*
X61018079Y-2028602D01*
X61068530Y-1944429D01*
X61126990Y-1865606D01*
X61192893Y-1792892D01*
X61265607Y-1726989D01*
X61344430Y-1668529D01*
X61428603Y-1618078D01*
X61517317Y-1576119D01*
X61609715Y-1543059D01*
X61704910Y-1519214D01*
X61801983Y-1504814D01*
X61900000Y-1499999D01*
X64900000Y-1499999D01*
X64998017Y-1504814D01*
X64998017Y-1504814D01*
G37*
D12*
X63400000Y-2500000D03*
D10*
G36*
X57598018Y-10904815D02*
X57695091Y-10919215D01*
X57790286Y-10943060D01*
X57882684Y-10976120D01*
X57971398Y-11018079D01*
X58055571Y-11068530D01*
X58134394Y-11126990D01*
X58207108Y-11192893D01*
X58273011Y-11265607D01*
X58331471Y-11344430D01*
X58381922Y-11428603D01*
X58423881Y-11517317D01*
X58456941Y-11609715D01*
X58480786Y-11704910D01*
X58495186Y-11801983D01*
X58500001Y-11900000D01*
X58500001Y-14900000D01*
X58495186Y-14998017D01*
X58480786Y-15095090D01*
X58456941Y-15190285D01*
X58423881Y-15282683D01*
X58381922Y-15371397D01*
X58331471Y-15455570D01*
X58273011Y-15534393D01*
X58207108Y-15607107D01*
X58134394Y-15673010D01*
X58055571Y-15731470D01*
X57971398Y-15781921D01*
X57882684Y-15823880D01*
X57790286Y-15856940D01*
X57695091Y-15880785D01*
X57598018Y-15895185D01*
X57500001Y-15900000D01*
X57499999Y-15900000D01*
X57401982Y-15895185D01*
X57304909Y-15880785D01*
X57209714Y-15856940D01*
X57117316Y-15823880D01*
X57028602Y-15781921D01*
X56944429Y-15731470D01*
X56865606Y-15673010D01*
X56792892Y-15607107D01*
X56726989Y-15534393D01*
X56668529Y-15455570D01*
X56618078Y-15371397D01*
X56576119Y-15282683D01*
X56543059Y-15190285D01*
X56519214Y-15095090D01*
X56504814Y-14998017D01*
X56499999Y-14900000D01*
X56499999Y-11900000D01*
X56504814Y-11801983D01*
X56519214Y-11704910D01*
X56543059Y-11609715D01*
X56576119Y-11517317D01*
X56618078Y-11428603D01*
X56668529Y-11344430D01*
X56726989Y-11265607D01*
X56792892Y-11192893D01*
X56865606Y-11126990D01*
X56944429Y-11068530D01*
X57028602Y-11018079D01*
X57117316Y-10976120D01*
X57209714Y-10943060D01*
X57304909Y-10919215D01*
X57401982Y-10904815D01*
X57499999Y-10900000D01*
X57500001Y-10900000D01*
X57598018Y-10904815D01*
X57598018Y-10904815D01*
G37*
D12*
X57500000Y-13400000D03*
D10*
G36*
X55098018Y-10904815D02*
X55195091Y-10919215D01*
X55290286Y-10943060D01*
X55382684Y-10976120D01*
X55471398Y-11018079D01*
X55555571Y-11068530D01*
X55634394Y-11126990D01*
X55707108Y-11192893D01*
X55773011Y-11265607D01*
X55831471Y-11344430D01*
X55881922Y-11428603D01*
X55923881Y-11517317D01*
X55956941Y-11609715D01*
X55980786Y-11704910D01*
X55995186Y-11801983D01*
X56000001Y-11900000D01*
X56000001Y-14900000D01*
X55995186Y-14998017D01*
X55980786Y-15095090D01*
X55956941Y-15190285D01*
X55923881Y-15282683D01*
X55881922Y-15371397D01*
X55831471Y-15455570D01*
X55773011Y-15534393D01*
X55707108Y-15607107D01*
X55634394Y-15673010D01*
X55555571Y-15731470D01*
X55471398Y-15781921D01*
X55382684Y-15823880D01*
X55290286Y-15856940D01*
X55195091Y-15880785D01*
X55098018Y-15895185D01*
X55000001Y-15900000D01*
X54999999Y-15900000D01*
X54901982Y-15895185D01*
X54804909Y-15880785D01*
X54709714Y-15856940D01*
X54617316Y-15823880D01*
X54528602Y-15781921D01*
X54444429Y-15731470D01*
X54365606Y-15673010D01*
X54292892Y-15607107D01*
X54226989Y-15534393D01*
X54168529Y-15455570D01*
X54118078Y-15371397D01*
X54076119Y-15282683D01*
X54043059Y-15190285D01*
X54019214Y-15095090D01*
X54004814Y-14998017D01*
X53999999Y-14900000D01*
X53999999Y-11900000D01*
X54004814Y-11801983D01*
X54019214Y-11704910D01*
X54043059Y-11609715D01*
X54076119Y-11517317D01*
X54118078Y-11428603D01*
X54168529Y-11344430D01*
X54226989Y-11265607D01*
X54292892Y-11192893D01*
X54365606Y-11126990D01*
X54444429Y-11068530D01*
X54528602Y-11018079D01*
X54617316Y-10976120D01*
X54709714Y-10943060D01*
X54804909Y-10919215D01*
X54901982Y-10904815D01*
X54999999Y-10900000D01*
X55000001Y-10900000D01*
X55098018Y-10904815D01*
X55098018Y-10904815D01*
G37*
D12*
X55000000Y-13400000D03*
D10*
G36*
X52598018Y-10904815D02*
X52695091Y-10919215D01*
X52790286Y-10943060D01*
X52882684Y-10976120D01*
X52971398Y-11018079D01*
X53055571Y-11068530D01*
X53134394Y-11126990D01*
X53207108Y-11192893D01*
X53273011Y-11265607D01*
X53331471Y-11344430D01*
X53381922Y-11428603D01*
X53423881Y-11517317D01*
X53456941Y-11609715D01*
X53480786Y-11704910D01*
X53495186Y-11801983D01*
X53500001Y-11900000D01*
X53500001Y-14900000D01*
X53495186Y-14998017D01*
X53480786Y-15095090D01*
X53456941Y-15190285D01*
X53423881Y-15282683D01*
X53381922Y-15371397D01*
X53331471Y-15455570D01*
X53273011Y-15534393D01*
X53207108Y-15607107D01*
X53134394Y-15673010D01*
X53055571Y-15731470D01*
X52971398Y-15781921D01*
X52882684Y-15823880D01*
X52790286Y-15856940D01*
X52695091Y-15880785D01*
X52598018Y-15895185D01*
X52500001Y-15900000D01*
X52499999Y-15900000D01*
X52401982Y-15895185D01*
X52304909Y-15880785D01*
X52209714Y-15856940D01*
X52117316Y-15823880D01*
X52028602Y-15781921D01*
X51944429Y-15731470D01*
X51865606Y-15673010D01*
X51792892Y-15607107D01*
X51726989Y-15534393D01*
X51668529Y-15455570D01*
X51618078Y-15371397D01*
X51576119Y-15282683D01*
X51543059Y-15190285D01*
X51519214Y-15095090D01*
X51504814Y-14998017D01*
X51499999Y-14900000D01*
X51499999Y-11900000D01*
X51504814Y-11801983D01*
X51519214Y-11704910D01*
X51543059Y-11609715D01*
X51576119Y-11517317D01*
X51618078Y-11428603D01*
X51668529Y-11344430D01*
X51726989Y-11265607D01*
X51792892Y-11192893D01*
X51865606Y-11126990D01*
X51944429Y-11068530D01*
X52028602Y-11018079D01*
X52117316Y-10976120D01*
X52209714Y-10943060D01*
X52304909Y-10919215D01*
X52401982Y-10904815D01*
X52499999Y-10900000D01*
X52500001Y-10900000D01*
X52598018Y-10904815D01*
X52598018Y-10904815D01*
G37*
D12*
X52500000Y-13400000D03*
D13*
G36*
X62665000Y-5861927D02*
X61900000Y-5861927D01*
X61580428Y-5893402D01*
X61482857Y-5923000D01*
X60791322Y-5923000D01*
X59700073Y-5050000D01*
X60791323Y-4177000D01*
X62665000Y-4177000D01*
X62665000Y-5861927D01*
X62665000Y-5861927D01*
G37*
X62665000Y-5861927D02*
X61900000Y-5861927D01*
X61580428Y-5893402D01*
X61482857Y-5923000D01*
X60791322Y-5923000D01*
X59700073Y-5050000D01*
X60791323Y-4177000D01*
X62665000Y-4177000D01*
X62665000Y-5861927D01*
G36*
X55873000Y-10794549D02*
X55873000Y-11787574D01*
X55861927Y-11900000D01*
X55861927Y-12665000D01*
X54138073Y-12665000D01*
X54138073Y-11900000D01*
X54127000Y-11787574D01*
X54127000Y-10794549D01*
X55000000Y-9703298D01*
X55873000Y-10794549D01*
X55873000Y-10794549D01*
G37*
X55873000Y-10794549D02*
X55873000Y-11787574D01*
X55861927Y-11900000D01*
X55861927Y-12665000D01*
X54138073Y-12665000D01*
X54138073Y-11900000D01*
X54127000Y-11787574D01*
X54127000Y-10794549D01*
X55000000Y-9703298D01*
X55873000Y-10794549D01*
G36*
X58940534Y-5356304D02*
X59100093Y-5545852D01*
X60350093Y-6545852D01*
X60503770Y-6636664D01*
X60746774Y-6685000D01*
X62665000Y-6685000D01*
X62665000Y-9265000D01*
X60000000Y-9265000D01*
X59931148Y-9271751D01*
X59862275Y-9278019D01*
X59859803Y-9278746D01*
X59857238Y-9278998D01*
X59791025Y-9298989D01*
X59724664Y-9318520D01*
X59722379Y-9319714D01*
X59719913Y-9320459D01*
X59658862Y-9352920D01*
X59597541Y-9384978D01*
X59595532Y-9386594D01*
X59593257Y-9387803D01*
X59539685Y-9431496D01*
X59485747Y-9474863D01*
X59484089Y-9476839D01*
X59482094Y-9478466D01*
X59438000Y-9531766D01*
X59393542Y-9584749D01*
X59392302Y-9587005D01*
X59390657Y-9588993D01*
X59357726Y-9649898D01*
X59324436Y-9710453D01*
X59323657Y-9712908D01*
X59322431Y-9715176D01*
X59301961Y-9781303D01*
X59281062Y-9847185D01*
X59280775Y-9849743D01*
X59280012Y-9852208D01*
X59272775Y-9921065D01*
X59265072Y-9989738D01*
X59265037Y-9994685D01*
X59265018Y-9994869D01*
X59265035Y-9995053D01*
X59265000Y-10000000D01*
X59265000Y-12665000D01*
X56638073Y-12665000D01*
X56638073Y-11900000D01*
X56635000Y-11868799D01*
X56635000Y-10750000D01*
X56609911Y-10573268D01*
X56495852Y-10353319D01*
X55495852Y-9103319D01*
X55396681Y-9004148D01*
X55327000Y-8968014D01*
X55327000Y-5327000D01*
X58931244Y-5327000D01*
X58940534Y-5356304D01*
X58940534Y-5356304D01*
G37*
X58940534Y-5356304D02*
X59100093Y-5545852D01*
X60350093Y-6545852D01*
X60503770Y-6636664D01*
X60746774Y-6685000D01*
X62665000Y-6685000D01*
X62665000Y-9265000D01*
X60000000Y-9265000D01*
X59931148Y-9271751D01*
X59862275Y-9278019D01*
X59859803Y-9278746D01*
X59857238Y-9278998D01*
X59791025Y-9298989D01*
X59724664Y-9318520D01*
X59722379Y-9319714D01*
X59719913Y-9320459D01*
X59658862Y-9352920D01*
X59597541Y-9384978D01*
X59595532Y-9386594D01*
X59593257Y-9387803D01*
X59539685Y-9431496D01*
X59485747Y-9474863D01*
X59484089Y-9476839D01*
X59482094Y-9478466D01*
X59438000Y-9531766D01*
X59393542Y-9584749D01*
X59392302Y-9587005D01*
X59390657Y-9588993D01*
X59357726Y-9649898D01*
X59324436Y-9710453D01*
X59323657Y-9712908D01*
X59322431Y-9715176D01*
X59301961Y-9781303D01*
X59281062Y-9847185D01*
X59280775Y-9849743D01*
X59280012Y-9852208D01*
X59272775Y-9921065D01*
X59265072Y-9989738D01*
X59265037Y-9994685D01*
X59265018Y-9994869D01*
X59265035Y-9995053D01*
X59265000Y-10000000D01*
X59265000Y-12665000D01*
X56638073Y-12665000D01*
X56638073Y-11900000D01*
X56635000Y-11868799D01*
X56635000Y-10750000D01*
X56609911Y-10573268D01*
X56495852Y-10353319D01*
X55495852Y-9103319D01*
X55396681Y-9004148D01*
X55327000Y-8968014D01*
X55327000Y-5327000D01*
X58931244Y-5327000D01*
X58940534Y-5356304D01*
G36*
X62665000Y-3361927D02*
X61900000Y-3361927D01*
X61580428Y-3393402D01*
X61509229Y-3415000D01*
X60746774Y-3415000D01*
X60570042Y-3440089D01*
X60350093Y-3554148D01*
X59100093Y-4554148D01*
X59000922Y-4653319D01*
X58991112Y-4672237D01*
X54800000Y-4672237D01*
X54775224Y-4674677D01*
X54751399Y-4681904D01*
X54729443Y-4693640D01*
X54710197Y-4709434D01*
X54694403Y-4728680D01*
X54682667Y-4750636D01*
X54675440Y-4774461D01*
X54673000Y-4799237D01*
X54673000Y-8961182D01*
X54504148Y-9103319D01*
X53504148Y-10353319D01*
X53413336Y-10506996D01*
X53365000Y-10750000D01*
X53365000Y-11868799D01*
X53361927Y-11900000D01*
X53361927Y-12665000D01*
X50735000Y-12665000D01*
X50735000Y-735000D01*
X62665000Y-735000D01*
X62665000Y-3361927D01*
X62665000Y-3361927D01*
G37*
X62665000Y-3361927D02*
X61900000Y-3361927D01*
X61580428Y-3393402D01*
X61509229Y-3415000D01*
X60746774Y-3415000D01*
X60570042Y-3440089D01*
X60350093Y-3554148D01*
X59100093Y-4554148D01*
X59000922Y-4653319D01*
X58991112Y-4672237D01*
X54800000Y-4672237D01*
X54775224Y-4674677D01*
X54751399Y-4681904D01*
X54729443Y-4693640D01*
X54710197Y-4709434D01*
X54694403Y-4728680D01*
X54682667Y-4750636D01*
X54675440Y-4774461D01*
X54673000Y-4799237D01*
X54673000Y-8961182D01*
X54504148Y-9103319D01*
X53504148Y-10353319D01*
X53413336Y-10506996D01*
X53365000Y-10750000D01*
X53365000Y-11868799D01*
X53361927Y-11900000D01*
X53361927Y-12665000D01*
X50735000Y-12665000D01*
X50735000Y-735000D01*
X62665000Y-735000D01*
X62665000Y-3361927D01*
M02*
