G04 #@! TF.GenerationSoftware,KiCad,Pcbnew,(2017-05-31 revision c0bb8a30c)-makepkg*
G04 #@! TF.CreationDate,2017-07-13T16:13:06-05:00*
G04 #@! TF.ProjectId,45 Neo,3435204E656F2E6B696361645F706362,rev?*
G04 #@! TF.FileFunction,Legend,Top*
G04 #@! TF.FilePolarity,Positive*
%FSLAX46Y46*%
G04 Gerber Fmt 4.6, Leading zero omitted, Abs format (unit mm)*
G04 Created by KiCad (PCBNEW (2017-05-31 revision c0bb8a30c)-makepkg) date 07/13/17 16:13:06*
%MOMM*%
%LPD*%
G01*
G04 APERTURE LIST*
%ADD10C,0.100000*%
%ADD11C,0.200000*%
%ADD12C,0.250000*%
%ADD13C,0.150000*%
G04 APERTURE END LIST*
D10*
D11*
X55950000Y-8700000D02*
X55950000Y-10350000D01*
X55950000Y-10350000D02*
X56300000Y-10000000D01*
X58450000Y-5950000D02*
X58800000Y-6300000D01*
X60100000Y-5950000D02*
X58450000Y-5950000D01*
D12*
X54452380Y-10150000D02*
X54452380Y-9959523D01*
X54500000Y-9864285D01*
X54595238Y-9769047D01*
X54785714Y-9721428D01*
X55119047Y-9721428D01*
X55309523Y-9769047D01*
X55404761Y-9864285D01*
X55452380Y-9959523D01*
X55452380Y-10150000D01*
X55404761Y-10245238D01*
X55309523Y-10340476D01*
X55119047Y-10388095D01*
X54785714Y-10388095D01*
X54595238Y-10340476D01*
X54500000Y-10245238D01*
X54452380Y-10150000D01*
X54452380Y-9292857D02*
X55261904Y-9292857D01*
X55357142Y-9245238D01*
X55404761Y-9197619D01*
X55452380Y-9102380D01*
X55452380Y-8911904D01*
X55404761Y-8816666D01*
X55357142Y-8769047D01*
X55261904Y-8721428D01*
X54452380Y-8721428D01*
X54452380Y-8388095D02*
X54452380Y-7816666D01*
X55452380Y-8102380D02*
X54452380Y-8102380D01*
X58350000Y-8961904D02*
X58302380Y-9057142D01*
X58302380Y-9200000D01*
X58350000Y-9342857D01*
X58445238Y-9438095D01*
X58540476Y-9485714D01*
X58730952Y-9533333D01*
X58873809Y-9533333D01*
X59064285Y-9485714D01*
X59159523Y-9438095D01*
X59254761Y-9342857D01*
X59302380Y-9200000D01*
X59302380Y-9104761D01*
X59254761Y-8961904D01*
X59207142Y-8914285D01*
X58873809Y-8914285D01*
X58873809Y-9104761D01*
X59302380Y-8485714D02*
X58302380Y-8485714D01*
X59302380Y-7914285D01*
X58302380Y-7914285D01*
X59302380Y-7438095D02*
X58302380Y-7438095D01*
X58302380Y-7200000D01*
X58350000Y-7057142D01*
X58445238Y-6961904D01*
X58540476Y-6914285D01*
X58730952Y-6866666D01*
X58873809Y-6866666D01*
X59064285Y-6914285D01*
X59159523Y-6961904D01*
X59254761Y-7057142D01*
X59302380Y-7200000D01*
X59302380Y-7438095D01*
X50702380Y-8740476D02*
X50702380Y-9216666D01*
X51178571Y-9264285D01*
X51130952Y-9216666D01*
X51083333Y-9121428D01*
X51083333Y-8883333D01*
X51130952Y-8788095D01*
X51178571Y-8740476D01*
X51273809Y-8692857D01*
X51511904Y-8692857D01*
X51607142Y-8740476D01*
X51654761Y-8788095D01*
X51702380Y-8883333D01*
X51702380Y-9121428D01*
X51654761Y-9216666D01*
X51607142Y-9264285D01*
X50702380Y-8407142D02*
X51702380Y-8073809D01*
X50702380Y-7740476D01*
X59126190Y-5452380D02*
X59126190Y-4452380D01*
X59602380Y-5452380D02*
X59602380Y-4452380D01*
X60173809Y-5452380D01*
X60173809Y-4452380D01*
X58559523Y-702380D02*
X58083333Y-702380D01*
X58035714Y-1178571D01*
X58083333Y-1130952D01*
X58178571Y-1083333D01*
X58416666Y-1083333D01*
X58511904Y-1130952D01*
X58559523Y-1178571D01*
X58607142Y-1273809D01*
X58607142Y-1511904D01*
X58559523Y-1607142D01*
X58511904Y-1654761D01*
X58416666Y-1702380D01*
X58178571Y-1702380D01*
X58083333Y-1654761D01*
X58035714Y-1607142D01*
X58892857Y-702380D02*
X59226190Y-1702380D01*
X59559523Y-702380D01*
D13*
X50800000Y-5900000D02*
X50800000Y-5200000D01*
X52000000Y-5200000D02*
X52000000Y-5900000D01*
X52500000Y-7500000D02*
X52500000Y-2500000D01*
X57500000Y-7500000D02*
X57500000Y-2500000D01*
X57500000Y-2500000D02*
X57200000Y-2500000D01*
X57500000Y-7500000D02*
X57200000Y-7500000D01*
X52500000Y-7500000D02*
X52800000Y-7500000D01*
X52500000Y-2500000D02*
X52800000Y-2500000D01*
X52430278Y-7900000D02*
G75*
G03X52430278Y-7900000I-180278J0D01*
G01*
X54000000Y-2500000D02*
X56000000Y-2500000D01*
X54000000Y-7500000D02*
X56000000Y-7500000D01*
M02*
