G04 #@! TF.GenerationSoftware,KiCad,Pcbnew,(2017-05-31 revision c0bb8a30c)-makepkg*
G04 #@! TF.CreationDate,2017-07-13T16:13:06-05:00*
G04 #@! TF.ProjectId,45 Neo,3435204E656F2E6B696361645F706362,rev?*
G04 #@! TF.FileFunction,Copper,L1,Top,Signal*
G04 #@! TF.FilePolarity,Positive*
%FSLAX46Y46*%
G04 Gerber Fmt 4.6, Leading zero omitted, Abs format (unit mm)*
G04 Created by KiCad (PCBNEW (2017-05-31 revision c0bb8a30c)-makepkg) date 07/13/17 16:13:06*
%MOMM*%
%LPD*%
G01*
G04 APERTURE LIST*
%ADD10C,0.100000*%
%ADD11C,0.600000*%
%ADD12R,0.750000X0.800000*%
%ADD13C,2.000000*%
%ADD14R,1.000000X1.500000*%
%ADD15C,0.400000*%
%ADD16C,0.254000*%
G04 APERTURE END LIST*
D10*
D11*
X60000000Y-8500000D03*
X60000000Y-7500000D03*
X60000000Y-1500000D03*
X60000000Y-2500000D03*
X64800000Y-5000000D03*
X55000000Y-14800000D03*
X58500000Y-10000000D03*
X51500000Y-10000000D03*
X62000000Y-5000000D03*
X55000000Y-12000000D03*
X57500000Y-10000000D03*
X52500000Y-10000000D03*
D12*
X51400000Y-6300000D03*
X51400000Y-4800000D03*
D10*
G36*
X64998017Y-4004814D02*
X65095090Y-4019214D01*
X65190285Y-4043059D01*
X65282683Y-4076119D01*
X65371397Y-4118078D01*
X65455570Y-4168529D01*
X65534393Y-4226989D01*
X65607107Y-4292892D01*
X65673010Y-4365606D01*
X65731470Y-4444429D01*
X65781921Y-4528602D01*
X65823880Y-4617316D01*
X65856940Y-4709714D01*
X65880785Y-4804909D01*
X65895185Y-4901982D01*
X65900000Y-4999999D01*
X65900000Y-5000001D01*
X65895185Y-5098018D01*
X65880785Y-5195091D01*
X65856940Y-5290286D01*
X65823880Y-5382684D01*
X65781921Y-5471398D01*
X65731470Y-5555571D01*
X65673010Y-5634394D01*
X65607107Y-5707108D01*
X65534393Y-5773011D01*
X65455570Y-5831471D01*
X65371397Y-5881922D01*
X65282683Y-5923881D01*
X65190285Y-5956941D01*
X65095090Y-5980786D01*
X64998017Y-5995186D01*
X64900000Y-6000001D01*
X61900000Y-6000001D01*
X61801983Y-5995186D01*
X61704910Y-5980786D01*
X61609715Y-5956941D01*
X61517317Y-5923881D01*
X61428603Y-5881922D01*
X61344430Y-5831471D01*
X61265607Y-5773011D01*
X61192893Y-5707108D01*
X61126990Y-5634394D01*
X61068530Y-5555571D01*
X61018079Y-5471398D01*
X60976120Y-5382684D01*
X60943060Y-5290286D01*
X60919215Y-5195091D01*
X60904815Y-5098018D01*
X60900000Y-5000001D01*
X60900000Y-4999999D01*
X60904815Y-4901982D01*
X60919215Y-4804909D01*
X60943060Y-4709714D01*
X60976120Y-4617316D01*
X61018079Y-4528602D01*
X61068530Y-4444429D01*
X61126990Y-4365606D01*
X61192893Y-4292892D01*
X61265607Y-4226989D01*
X61344430Y-4168529D01*
X61428603Y-4118078D01*
X61517317Y-4076119D01*
X61609715Y-4043059D01*
X61704910Y-4019214D01*
X61801983Y-4004814D01*
X61900000Y-3999999D01*
X64900000Y-3999999D01*
X64998017Y-4004814D01*
X64998017Y-4004814D01*
G37*
D13*
X63400000Y-5000000D03*
D10*
G36*
X64998017Y-1504814D02*
X65095090Y-1519214D01*
X65190285Y-1543059D01*
X65282683Y-1576119D01*
X65371397Y-1618078D01*
X65455570Y-1668529D01*
X65534393Y-1726989D01*
X65607107Y-1792892D01*
X65673010Y-1865606D01*
X65731470Y-1944429D01*
X65781921Y-2028602D01*
X65823880Y-2117316D01*
X65856940Y-2209714D01*
X65880785Y-2304909D01*
X65895185Y-2401982D01*
X65900000Y-2499999D01*
X65900000Y-2500001D01*
X65895185Y-2598018D01*
X65880785Y-2695091D01*
X65856940Y-2790286D01*
X65823880Y-2882684D01*
X65781921Y-2971398D01*
X65731470Y-3055571D01*
X65673010Y-3134394D01*
X65607107Y-3207108D01*
X65534393Y-3273011D01*
X65455570Y-3331471D01*
X65371397Y-3381922D01*
X65282683Y-3423881D01*
X65190285Y-3456941D01*
X65095090Y-3480786D01*
X64998017Y-3495186D01*
X64900000Y-3500001D01*
X61900000Y-3500001D01*
X61801983Y-3495186D01*
X61704910Y-3480786D01*
X61609715Y-3456941D01*
X61517317Y-3423881D01*
X61428603Y-3381922D01*
X61344430Y-3331471D01*
X61265607Y-3273011D01*
X61192893Y-3207108D01*
X61126990Y-3134394D01*
X61068530Y-3055571D01*
X61018079Y-2971398D01*
X60976120Y-2882684D01*
X60943060Y-2790286D01*
X60919215Y-2695091D01*
X60904815Y-2598018D01*
X60900000Y-2500001D01*
X60900000Y-2499999D01*
X60904815Y-2401982D01*
X60919215Y-2304909D01*
X60943060Y-2209714D01*
X60976120Y-2117316D01*
X61018079Y-2028602D01*
X61068530Y-1944429D01*
X61126990Y-1865606D01*
X61192893Y-1792892D01*
X61265607Y-1726989D01*
X61344430Y-1668529D01*
X61428603Y-1618078D01*
X61517317Y-1576119D01*
X61609715Y-1543059D01*
X61704910Y-1519214D01*
X61801983Y-1504814D01*
X61900000Y-1499999D01*
X64900000Y-1499999D01*
X64998017Y-1504814D01*
X64998017Y-1504814D01*
G37*
D13*
X63400000Y-2500000D03*
D10*
G36*
X64998017Y-6504814D02*
X65095090Y-6519214D01*
X65190285Y-6543059D01*
X65282683Y-6576119D01*
X65371397Y-6618078D01*
X65455570Y-6668529D01*
X65534393Y-6726989D01*
X65607107Y-6792892D01*
X65673010Y-6865606D01*
X65731470Y-6944429D01*
X65781921Y-7028602D01*
X65823880Y-7117316D01*
X65856940Y-7209714D01*
X65880785Y-7304909D01*
X65895185Y-7401982D01*
X65900000Y-7499999D01*
X65900000Y-7500001D01*
X65895185Y-7598018D01*
X65880785Y-7695091D01*
X65856940Y-7790286D01*
X65823880Y-7882684D01*
X65781921Y-7971398D01*
X65731470Y-8055571D01*
X65673010Y-8134394D01*
X65607107Y-8207108D01*
X65534393Y-8273011D01*
X65455570Y-8331471D01*
X65371397Y-8381922D01*
X65282683Y-8423881D01*
X65190285Y-8456941D01*
X65095090Y-8480786D01*
X64998017Y-8495186D01*
X64900000Y-8500001D01*
X61900000Y-8500001D01*
X61801983Y-8495186D01*
X61704910Y-8480786D01*
X61609715Y-8456941D01*
X61517317Y-8423881D01*
X61428603Y-8381922D01*
X61344430Y-8331471D01*
X61265607Y-8273011D01*
X61192893Y-8207108D01*
X61126990Y-8134394D01*
X61068530Y-8055571D01*
X61018079Y-7971398D01*
X60976120Y-7882684D01*
X60943060Y-7790286D01*
X60919215Y-7695091D01*
X60904815Y-7598018D01*
X60900000Y-7500001D01*
X60900000Y-7499999D01*
X60904815Y-7401982D01*
X60919215Y-7304909D01*
X60943060Y-7209714D01*
X60976120Y-7117316D01*
X61018079Y-7028602D01*
X61068530Y-6944429D01*
X61126990Y-6865606D01*
X61192893Y-6792892D01*
X61265607Y-6726989D01*
X61344430Y-6668529D01*
X61428603Y-6618078D01*
X61517317Y-6576119D01*
X61609715Y-6543059D01*
X61704910Y-6519214D01*
X61801983Y-6504814D01*
X61900000Y-6499999D01*
X64900000Y-6499999D01*
X64998017Y-6504814D01*
X64998017Y-6504814D01*
G37*
D13*
X63400000Y-7500000D03*
D10*
G36*
X52598018Y-10904815D02*
X52695091Y-10919215D01*
X52790286Y-10943060D01*
X52882684Y-10976120D01*
X52971398Y-11018079D01*
X53055571Y-11068530D01*
X53134394Y-11126990D01*
X53207108Y-11192893D01*
X53273011Y-11265607D01*
X53331471Y-11344430D01*
X53381922Y-11428603D01*
X53423881Y-11517317D01*
X53456941Y-11609715D01*
X53480786Y-11704910D01*
X53495186Y-11801983D01*
X53500001Y-11900000D01*
X53500001Y-14900000D01*
X53495186Y-14998017D01*
X53480786Y-15095090D01*
X53456941Y-15190285D01*
X53423881Y-15282683D01*
X53381922Y-15371397D01*
X53331471Y-15455570D01*
X53273011Y-15534393D01*
X53207108Y-15607107D01*
X53134394Y-15673010D01*
X53055571Y-15731470D01*
X52971398Y-15781921D01*
X52882684Y-15823880D01*
X52790286Y-15856940D01*
X52695091Y-15880785D01*
X52598018Y-15895185D01*
X52500001Y-15900000D01*
X52499999Y-15900000D01*
X52401982Y-15895185D01*
X52304909Y-15880785D01*
X52209714Y-15856940D01*
X52117316Y-15823880D01*
X52028602Y-15781921D01*
X51944429Y-15731470D01*
X51865606Y-15673010D01*
X51792892Y-15607107D01*
X51726989Y-15534393D01*
X51668529Y-15455570D01*
X51618078Y-15371397D01*
X51576119Y-15282683D01*
X51543059Y-15190285D01*
X51519214Y-15095090D01*
X51504814Y-14998017D01*
X51499999Y-14900000D01*
X51499999Y-11900000D01*
X51504814Y-11801983D01*
X51519214Y-11704910D01*
X51543059Y-11609715D01*
X51576119Y-11517317D01*
X51618078Y-11428603D01*
X51668529Y-11344430D01*
X51726989Y-11265607D01*
X51792892Y-11192893D01*
X51865606Y-11126990D01*
X51944429Y-11068530D01*
X52028602Y-11018079D01*
X52117316Y-10976120D01*
X52209714Y-10943060D01*
X52304909Y-10919215D01*
X52401982Y-10904815D01*
X52499999Y-10900000D01*
X52500001Y-10900000D01*
X52598018Y-10904815D01*
X52598018Y-10904815D01*
G37*
D13*
X52500000Y-13400000D03*
D10*
G36*
X57598018Y-10904815D02*
X57695091Y-10919215D01*
X57790286Y-10943060D01*
X57882684Y-10976120D01*
X57971398Y-11018079D01*
X58055571Y-11068530D01*
X58134394Y-11126990D01*
X58207108Y-11192893D01*
X58273011Y-11265607D01*
X58331471Y-11344430D01*
X58381922Y-11428603D01*
X58423881Y-11517317D01*
X58456941Y-11609715D01*
X58480786Y-11704910D01*
X58495186Y-11801983D01*
X58500001Y-11900000D01*
X58500001Y-14900000D01*
X58495186Y-14998017D01*
X58480786Y-15095090D01*
X58456941Y-15190285D01*
X58423881Y-15282683D01*
X58381922Y-15371397D01*
X58331471Y-15455570D01*
X58273011Y-15534393D01*
X58207108Y-15607107D01*
X58134394Y-15673010D01*
X58055571Y-15731470D01*
X57971398Y-15781921D01*
X57882684Y-15823880D01*
X57790286Y-15856940D01*
X57695091Y-15880785D01*
X57598018Y-15895185D01*
X57500001Y-15900000D01*
X57499999Y-15900000D01*
X57401982Y-15895185D01*
X57304909Y-15880785D01*
X57209714Y-15856940D01*
X57117316Y-15823880D01*
X57028602Y-15781921D01*
X56944429Y-15731470D01*
X56865606Y-15673010D01*
X56792892Y-15607107D01*
X56726989Y-15534393D01*
X56668529Y-15455570D01*
X56618078Y-15371397D01*
X56576119Y-15282683D01*
X56543059Y-15190285D01*
X56519214Y-15095090D01*
X56504814Y-14998017D01*
X56499999Y-14900000D01*
X56499999Y-11900000D01*
X56504814Y-11801983D01*
X56519214Y-11704910D01*
X56543059Y-11609715D01*
X56576119Y-11517317D01*
X56618078Y-11428603D01*
X56668529Y-11344430D01*
X56726989Y-11265607D01*
X56792892Y-11192893D01*
X56865606Y-11126990D01*
X56944429Y-11068530D01*
X57028602Y-11018079D01*
X57117316Y-10976120D01*
X57209714Y-10943060D01*
X57304909Y-10919215D01*
X57401982Y-10904815D01*
X57499999Y-10900000D01*
X57500001Y-10900000D01*
X57598018Y-10904815D01*
X57598018Y-10904815D01*
G37*
D13*
X57500000Y-13400000D03*
D10*
G36*
X55098018Y-10904815D02*
X55195091Y-10919215D01*
X55290286Y-10943060D01*
X55382684Y-10976120D01*
X55471398Y-11018079D01*
X55555571Y-11068530D01*
X55634394Y-11126990D01*
X55707108Y-11192893D01*
X55773011Y-11265607D01*
X55831471Y-11344430D01*
X55881922Y-11428603D01*
X55923881Y-11517317D01*
X55956941Y-11609715D01*
X55980786Y-11704910D01*
X55995186Y-11801983D01*
X56000001Y-11900000D01*
X56000001Y-14900000D01*
X55995186Y-14998017D01*
X55980786Y-15095090D01*
X55956941Y-15190285D01*
X55923881Y-15282683D01*
X55881922Y-15371397D01*
X55831471Y-15455570D01*
X55773011Y-15534393D01*
X55707108Y-15607107D01*
X55634394Y-15673010D01*
X55555571Y-15731470D01*
X55471398Y-15781921D01*
X55382684Y-15823880D01*
X55290286Y-15856940D01*
X55195091Y-15880785D01*
X55098018Y-15895185D01*
X55000001Y-15900000D01*
X54999999Y-15900000D01*
X54901982Y-15895185D01*
X54804909Y-15880785D01*
X54709714Y-15856940D01*
X54617316Y-15823880D01*
X54528602Y-15781921D01*
X54444429Y-15731470D01*
X54365606Y-15673010D01*
X54292892Y-15607107D01*
X54226989Y-15534393D01*
X54168529Y-15455570D01*
X54118078Y-15371397D01*
X54076119Y-15282683D01*
X54043059Y-15190285D01*
X54019214Y-15095090D01*
X54004814Y-14998017D01*
X53999999Y-14900000D01*
X53999999Y-11900000D01*
X54004814Y-11801983D01*
X54019214Y-11704910D01*
X54043059Y-11609715D01*
X54076119Y-11517317D01*
X54118078Y-11428603D01*
X54168529Y-11344430D01*
X54226989Y-11265607D01*
X54292892Y-11192893D01*
X54365606Y-11126990D01*
X54444429Y-11068530D01*
X54528602Y-11018079D01*
X54617316Y-10976120D01*
X54709714Y-10943060D01*
X54804909Y-10919215D01*
X54901982Y-10904815D01*
X54999999Y-10900000D01*
X55000001Y-10900000D01*
X55098018Y-10904815D01*
X55098018Y-10904815D01*
G37*
D13*
X55000000Y-13400000D03*
D14*
X56600000Y-2550000D03*
X53400000Y-2550000D03*
X53400000Y-7450000D03*
X56600000Y-7450000D03*
D15*
X52500000Y-10000000D02*
X52500000Y-13400000D01*
X60000000Y-2500000D02*
X63400000Y-2500000D01*
X56600000Y-2550000D02*
X56600000Y-4850000D01*
X56600000Y-4850000D02*
X58750000Y-7000000D01*
X58750000Y-7000000D02*
X59500000Y-7000000D01*
X59500000Y-7000000D02*
X60000000Y-7500000D01*
X57500000Y-10000000D02*
X57500000Y-13400000D01*
X60000000Y-7500000D02*
X63400000Y-7500000D01*
X53800000Y-1000000D02*
X57650000Y-1000000D01*
X53400000Y-1400000D02*
X53800000Y-1000000D01*
X53400000Y-2550000D02*
X53400000Y-1400000D01*
X57950000Y-4400000D02*
X58550000Y-5000000D01*
X58550000Y-5000000D02*
X62000000Y-5000000D01*
X57950000Y-1300000D02*
X57950000Y-4400000D01*
X57650000Y-1000000D02*
X57950000Y-1300000D01*
X55450000Y-7450000D02*
X55000000Y-7900000D01*
X55000000Y-7900000D02*
X55000000Y-13400000D01*
X56600000Y-7450000D02*
X55450000Y-7450000D01*
D16*
G36*
X52809566Y-809566D02*
X52760596Y-869182D01*
X52711030Y-928253D01*
X52708917Y-932096D01*
X52706127Y-935493D01*
X52669648Y-1003526D01*
X52632522Y-1071059D01*
X52631195Y-1075242D01*
X52629119Y-1079114D01*
X52606563Y-1152893D01*
X52583247Y-1226394D01*
X52582758Y-1230758D01*
X52581474Y-1234956D01*
X52579832Y-1251115D01*
X52545506Y-1269463D01*
X52448815Y-1348815D01*
X52369463Y-1445506D01*
X52310498Y-1555820D01*
X52274188Y-1675518D01*
X52261928Y-1800000D01*
X52261928Y-3300000D01*
X52274188Y-3424482D01*
X52310498Y-3544180D01*
X52369463Y-3654494D01*
X52448815Y-3751185D01*
X52545506Y-3830537D01*
X52655820Y-3889502D01*
X52775518Y-3925812D01*
X52900000Y-3938072D01*
X53900000Y-3938072D01*
X54024482Y-3925812D01*
X54144180Y-3889502D01*
X54254494Y-3830537D01*
X54351185Y-3751185D01*
X54430537Y-3654494D01*
X54489502Y-3544180D01*
X54525812Y-3424482D01*
X54538072Y-3300000D01*
X54538072Y-1835000D01*
X57115000Y-1835000D01*
X57115000Y-4400000D01*
X57122525Y-4476747D01*
X57129249Y-4553600D01*
X57130473Y-4557814D01*
X57130902Y-4562186D01*
X57153212Y-4636081D01*
X57174715Y-4710092D01*
X57176734Y-4713986D01*
X57178004Y-4718194D01*
X57214223Y-4786311D01*
X57249710Y-4854774D01*
X57252451Y-4858207D01*
X57254511Y-4862082D01*
X57303269Y-4921866D01*
X57351380Y-4982133D01*
X57357400Y-4988238D01*
X57357508Y-4988370D01*
X57357631Y-4988471D01*
X57359566Y-4990434D01*
X57373000Y-5003868D01*
X57373000Y-5173000D01*
X50735000Y-5173000D01*
X50735000Y-735000D01*
X52884132Y-735000D01*
X52809566Y-809566D01*
X52809566Y-809566D01*
G37*
X52809566Y-809566D02*
X52760596Y-869182D01*
X52711030Y-928253D01*
X52708917Y-932096D01*
X52706127Y-935493D01*
X52669648Y-1003526D01*
X52632522Y-1071059D01*
X52631195Y-1075242D01*
X52629119Y-1079114D01*
X52606563Y-1152893D01*
X52583247Y-1226394D01*
X52582758Y-1230758D01*
X52581474Y-1234956D01*
X52579832Y-1251115D01*
X52545506Y-1269463D01*
X52448815Y-1348815D01*
X52369463Y-1445506D01*
X52310498Y-1555820D01*
X52274188Y-1675518D01*
X52261928Y-1800000D01*
X52261928Y-3300000D01*
X52274188Y-3424482D01*
X52310498Y-3544180D01*
X52369463Y-3654494D01*
X52448815Y-3751185D01*
X52545506Y-3830537D01*
X52655820Y-3889502D01*
X52775518Y-3925812D01*
X52900000Y-3938072D01*
X53900000Y-3938072D01*
X54024482Y-3925812D01*
X54144180Y-3889502D01*
X54254494Y-3830537D01*
X54351185Y-3751185D01*
X54430537Y-3654494D01*
X54489502Y-3544180D01*
X54525812Y-3424482D01*
X54538072Y-3300000D01*
X54538072Y-1835000D01*
X57115000Y-1835000D01*
X57115000Y-4400000D01*
X57122525Y-4476747D01*
X57129249Y-4553600D01*
X57130473Y-4557814D01*
X57130902Y-4562186D01*
X57153212Y-4636081D01*
X57174715Y-4710092D01*
X57176734Y-4713986D01*
X57178004Y-4718194D01*
X57214223Y-4786311D01*
X57249710Y-4854774D01*
X57252451Y-4858207D01*
X57254511Y-4862082D01*
X57303269Y-4921866D01*
X57351380Y-4982133D01*
X57357400Y-4988238D01*
X57357508Y-4988370D01*
X57357631Y-4988471D01*
X57359566Y-4990434D01*
X57373000Y-5003868D01*
X57373000Y-5173000D01*
X50735000Y-5173000D01*
X50735000Y-735000D01*
X52884132Y-735000D01*
X52809566Y-809566D01*
G36*
X57959566Y-5590434D02*
X58019155Y-5639382D01*
X58078253Y-5688970D01*
X58082100Y-5691085D01*
X58085493Y-5693872D01*
X58153506Y-5730341D01*
X58221059Y-5767478D01*
X58225240Y-5768804D01*
X58229113Y-5770881D01*
X58302907Y-5793441D01*
X58376394Y-5816753D01*
X58380758Y-5817242D01*
X58384956Y-5818526D01*
X58461671Y-5826319D01*
X58538342Y-5834919D01*
X58546924Y-5834979D01*
X58547085Y-5834995D01*
X58547235Y-5834981D01*
X58550000Y-5835000D01*
X60497870Y-5835000D01*
X60537993Y-5910065D01*
X60741708Y-6158293D01*
X60989936Y-6362008D01*
X61273137Y-6513382D01*
X61580428Y-6606598D01*
X61900000Y-6638073D01*
X62665000Y-6638073D01*
X62665000Y-9265000D01*
X60000000Y-9265000D01*
X59931148Y-9271751D01*
X59862275Y-9278019D01*
X59859803Y-9278746D01*
X59857238Y-9278998D01*
X59791025Y-9298989D01*
X59724664Y-9318520D01*
X59722379Y-9319714D01*
X59719913Y-9320459D01*
X59658862Y-9352920D01*
X59597541Y-9384978D01*
X59595532Y-9386594D01*
X59593257Y-9387803D01*
X59539685Y-9431496D01*
X59485747Y-9474863D01*
X59484089Y-9476839D01*
X59482094Y-9478466D01*
X59438000Y-9531766D01*
X59393542Y-9584749D01*
X59392302Y-9587005D01*
X59390657Y-9588993D01*
X59357726Y-9649898D01*
X59324436Y-9710453D01*
X59323657Y-9712908D01*
X59322431Y-9715176D01*
X59301961Y-9781303D01*
X59281062Y-9847185D01*
X59280775Y-9849743D01*
X59280012Y-9852208D01*
X59272775Y-9921065D01*
X59265072Y-9989738D01*
X59265037Y-9994685D01*
X59265018Y-9994869D01*
X59265035Y-9995053D01*
X59265000Y-10000000D01*
X59265000Y-12665000D01*
X56638073Y-12665000D01*
X56638073Y-11900000D01*
X56606598Y-11580428D01*
X56513382Y-11273137D01*
X56362008Y-10989936D01*
X56158293Y-10741708D01*
X55910065Y-10537993D01*
X55835000Y-10497870D01*
X55835000Y-8778373D01*
X55855820Y-8789502D01*
X55975518Y-8825812D01*
X56100000Y-8838072D01*
X57100000Y-8838072D01*
X57224482Y-8825812D01*
X57344180Y-8789502D01*
X57454494Y-8730537D01*
X57551185Y-8651185D01*
X57630537Y-8554494D01*
X57689502Y-8444180D01*
X57725812Y-8324482D01*
X57738072Y-8200000D01*
X57738072Y-6700000D01*
X57725812Y-6575518D01*
X57689502Y-6455820D01*
X57630537Y-6345506D01*
X57551185Y-6248815D01*
X57454494Y-6169463D01*
X57344180Y-6110498D01*
X57224482Y-6074188D01*
X57100000Y-6061928D01*
X56100000Y-6061928D01*
X55975518Y-6074188D01*
X55855820Y-6110498D01*
X55745506Y-6169463D01*
X55648815Y-6248815D01*
X55569463Y-6345506D01*
X55510498Y-6455820D01*
X55474188Y-6575518D01*
X55470299Y-6615000D01*
X55450000Y-6615000D01*
X55373208Y-6622529D01*
X55327000Y-6626572D01*
X55327000Y-5427000D01*
X57500000Y-5427000D01*
X57548601Y-5417333D01*
X57589803Y-5389803D01*
X57617333Y-5348601D01*
X57621630Y-5327000D01*
X57696132Y-5327000D01*
X57959566Y-5590434D01*
X57959566Y-5590434D01*
G37*
X57959566Y-5590434D02*
X58019155Y-5639382D01*
X58078253Y-5688970D01*
X58082100Y-5691085D01*
X58085493Y-5693872D01*
X58153506Y-5730341D01*
X58221059Y-5767478D01*
X58225240Y-5768804D01*
X58229113Y-5770881D01*
X58302907Y-5793441D01*
X58376394Y-5816753D01*
X58380758Y-5817242D01*
X58384956Y-5818526D01*
X58461671Y-5826319D01*
X58538342Y-5834919D01*
X58546924Y-5834979D01*
X58547085Y-5834995D01*
X58547235Y-5834981D01*
X58550000Y-5835000D01*
X60497870Y-5835000D01*
X60537993Y-5910065D01*
X60741708Y-6158293D01*
X60989936Y-6362008D01*
X61273137Y-6513382D01*
X61580428Y-6606598D01*
X61900000Y-6638073D01*
X62665000Y-6638073D01*
X62665000Y-9265000D01*
X60000000Y-9265000D01*
X59931148Y-9271751D01*
X59862275Y-9278019D01*
X59859803Y-9278746D01*
X59857238Y-9278998D01*
X59791025Y-9298989D01*
X59724664Y-9318520D01*
X59722379Y-9319714D01*
X59719913Y-9320459D01*
X59658862Y-9352920D01*
X59597541Y-9384978D01*
X59595532Y-9386594D01*
X59593257Y-9387803D01*
X59539685Y-9431496D01*
X59485747Y-9474863D01*
X59484089Y-9476839D01*
X59482094Y-9478466D01*
X59438000Y-9531766D01*
X59393542Y-9584749D01*
X59392302Y-9587005D01*
X59390657Y-9588993D01*
X59357726Y-9649898D01*
X59324436Y-9710453D01*
X59323657Y-9712908D01*
X59322431Y-9715176D01*
X59301961Y-9781303D01*
X59281062Y-9847185D01*
X59280775Y-9849743D01*
X59280012Y-9852208D01*
X59272775Y-9921065D01*
X59265072Y-9989738D01*
X59265037Y-9994685D01*
X59265018Y-9994869D01*
X59265035Y-9995053D01*
X59265000Y-10000000D01*
X59265000Y-12665000D01*
X56638073Y-12665000D01*
X56638073Y-11900000D01*
X56606598Y-11580428D01*
X56513382Y-11273137D01*
X56362008Y-10989936D01*
X56158293Y-10741708D01*
X55910065Y-10537993D01*
X55835000Y-10497870D01*
X55835000Y-8778373D01*
X55855820Y-8789502D01*
X55975518Y-8825812D01*
X56100000Y-8838072D01*
X57100000Y-8838072D01*
X57224482Y-8825812D01*
X57344180Y-8789502D01*
X57454494Y-8730537D01*
X57551185Y-8651185D01*
X57630537Y-8554494D01*
X57689502Y-8444180D01*
X57725812Y-8324482D01*
X57738072Y-8200000D01*
X57738072Y-6700000D01*
X57725812Y-6575518D01*
X57689502Y-6455820D01*
X57630537Y-6345506D01*
X57551185Y-6248815D01*
X57454494Y-6169463D01*
X57344180Y-6110498D01*
X57224482Y-6074188D01*
X57100000Y-6061928D01*
X56100000Y-6061928D01*
X55975518Y-6074188D01*
X55855820Y-6110498D01*
X55745506Y-6169463D01*
X55648815Y-6248815D01*
X55569463Y-6345506D01*
X55510498Y-6455820D01*
X55474188Y-6575518D01*
X55470299Y-6615000D01*
X55450000Y-6615000D01*
X55373208Y-6622529D01*
X55327000Y-6626572D01*
X55327000Y-5427000D01*
X57500000Y-5427000D01*
X57548601Y-5417333D01*
X57589803Y-5389803D01*
X57617333Y-5348601D01*
X57621630Y-5327000D01*
X57696132Y-5327000D01*
X57959566Y-5590434D01*
G36*
X54673000Y-7046132D02*
X54409566Y-7309566D01*
X54360596Y-7369182D01*
X54311030Y-7428253D01*
X54308917Y-7432096D01*
X54306127Y-7435493D01*
X54269648Y-7503526D01*
X54232522Y-7571059D01*
X54231195Y-7575242D01*
X54229119Y-7579114D01*
X54206563Y-7652893D01*
X54183247Y-7726394D01*
X54182758Y-7730758D01*
X54181474Y-7734956D01*
X54173676Y-7811716D01*
X54165081Y-7888342D01*
X54165021Y-7896913D01*
X54165004Y-7897085D01*
X54165019Y-7897245D01*
X54165000Y-7900000D01*
X54165000Y-10497870D01*
X54089935Y-10537993D01*
X53841707Y-10741708D01*
X53637992Y-10989936D01*
X53486618Y-11273137D01*
X53393402Y-11580428D01*
X53361927Y-11900000D01*
X53361927Y-12665000D01*
X50735000Y-12665000D01*
X50735000Y-5935000D01*
X54673000Y-5935000D01*
X54673000Y-7046132D01*
X54673000Y-7046132D01*
G37*
X54673000Y-7046132D02*
X54409566Y-7309566D01*
X54360596Y-7369182D01*
X54311030Y-7428253D01*
X54308917Y-7432096D01*
X54306127Y-7435493D01*
X54269648Y-7503526D01*
X54232522Y-7571059D01*
X54231195Y-7575242D01*
X54229119Y-7579114D01*
X54206563Y-7652893D01*
X54183247Y-7726394D01*
X54182758Y-7730758D01*
X54181474Y-7734956D01*
X54173676Y-7811716D01*
X54165081Y-7888342D01*
X54165021Y-7896913D01*
X54165004Y-7897085D01*
X54165019Y-7897245D01*
X54165000Y-7900000D01*
X54165000Y-10497870D01*
X54089935Y-10537993D01*
X53841707Y-10741708D01*
X53637992Y-10989936D01*
X53486618Y-11273137D01*
X53393402Y-11580428D01*
X53361927Y-11900000D01*
X53361927Y-12665000D01*
X50735000Y-12665000D01*
X50735000Y-5935000D01*
X54673000Y-5935000D01*
X54673000Y-7046132D01*
G36*
X62665000Y-3361927D02*
X61900000Y-3361927D01*
X61580428Y-3393402D01*
X61273137Y-3486618D01*
X60989936Y-3637992D01*
X60741708Y-3841707D01*
X60537993Y-4089935D01*
X60497870Y-4165000D01*
X58895868Y-4165000D01*
X58785000Y-4054132D01*
X58785000Y-1300000D01*
X58777471Y-1223208D01*
X58770751Y-1146400D01*
X58769527Y-1142186D01*
X58769098Y-1137814D01*
X58746792Y-1063933D01*
X58725285Y-989907D01*
X58723266Y-986011D01*
X58721996Y-981806D01*
X58685787Y-913707D01*
X58650290Y-845226D01*
X58647549Y-841793D01*
X58645489Y-837918D01*
X58596731Y-778134D01*
X58562297Y-735000D01*
X62665000Y-735000D01*
X62665000Y-3361927D01*
X62665000Y-3361927D01*
G37*
X62665000Y-3361927D02*
X61900000Y-3361927D01*
X61580428Y-3393402D01*
X61273137Y-3486618D01*
X60989936Y-3637992D01*
X60741708Y-3841707D01*
X60537993Y-4089935D01*
X60497870Y-4165000D01*
X58895868Y-4165000D01*
X58785000Y-4054132D01*
X58785000Y-1300000D01*
X58777471Y-1223208D01*
X58770751Y-1146400D01*
X58769527Y-1142186D01*
X58769098Y-1137814D01*
X58746792Y-1063933D01*
X58725285Y-989907D01*
X58723266Y-986011D01*
X58721996Y-981806D01*
X58685787Y-913707D01*
X58650290Y-845226D01*
X58647549Y-841793D01*
X58645489Y-837918D01*
X58596731Y-778134D01*
X58562297Y-735000D01*
X62665000Y-735000D01*
X62665000Y-3361927D01*
M02*
